<svg version="1.1" id="Layer_1" xmlns="http://www.w3.org/2000/svg" xmlns:xlink="http://www.w3.org/1999/xlink" x="0px" y="0px"
	 width="100%" viewBox="0 0 312 215" enable-background="new 0 0 312 215" xml:space="preserve">
<path fill="#F2F1F0" opacity="1.000000" stroke="none" 
	d="
M163.000000,216.000000 
	C109.022537,216.000000 55.045067,216.000000 1.033801,216.000000 
	C1.033801,144.385788 1.033801,72.771553 1.033801,1.078660 
	C104.904114,1.078660 208.808304,1.078660 312.856262,1.078660 
	C312.856262,72.666489 312.856262,144.333191 312.856262,216.000000 
	C264.897400,216.000000 216.917358,216.000000 168.670944,215.702606 
	C168.268829,214.948685 168.133102,214.492157 168.102600,213.747040 
	C180.444794,204.821915 192.681778,196.185349 205.197662,187.534668 
	C205.975632,187.022430 206.474655,186.524323 207.264557,185.921982 
	C208.493149,185.048477 209.430878,184.279205 210.638031,183.310242 
	C210.948334,181.413300 210.989197,179.716034 211.103790,177.554810 
	C211.135666,171.722687 211.093842,166.354492 211.238678,160.643585 
	C211.293457,156.872787 211.161575,153.444702 211.099609,149.564545 
	C211.518539,145.156189 211.867584,141.199890 212.669907,137.259491 
	C216.248215,137.232712 219.414062,137.482925 222.485382,137.054901 
	C224.954254,136.710815 227.308701,135.545563 229.713913,134.744675 
	C227.479172,133.492615 225.244431,132.240555 223.002289,130.596115 
	C223.189301,127.871368 223.383713,125.539001 223.686340,122.841629 
	C224.212509,121.332787 224.630463,120.188950 225.346741,118.879105 
	C227.844131,116.849503 231.797256,116.457138 231.355713,111.908401 
	C234.259735,111.748482 236.930283,111.863106 239.787643,112.067810 
	C239.974457,112.157898 240.377655,112.255898 240.377655,112.255898 
	C240.377655,112.255898 240.792114,112.236374 240.813309,112.440735 
	C241.551453,112.726486 242.268387,112.807884 243.323990,113.045547 
	C246.293839,113.938789 248.925018,114.675758 251.783722,115.685799 
	C254.041809,115.735214 257.545074,116.038521 257.846497,115.196129 
	C259.111816,111.659996 255.701309,111.524368 253.493881,110.911919 
	C249.306305,109.750076 245.054916,108.818153 240.639969,107.794449 
	C240.122589,107.685181 239.795273,107.572197 239.223373,107.233505 
	C236.386353,105.891220 233.793915,104.774651 231.249847,103.216858 
	C231.186859,98.515343 231.075500,94.255051 231.301819,89.817451 
	C232.120377,89.475906 232.601257,89.311661 233.326355,89.384567 
	C234.547958,90.164337 235.525345,90.706963 236.700195,91.525085 
	C237.938766,92.158485 238.979874,92.516380 240.387268,92.939514 
	C242.149567,92.598740 243.545563,92.192719 245.297485,91.705597 
	C253.161102,89.128242 253.476974,88.626625 250.518127,82.882462 
	C249.257370,83.967995 248.099503,84.964935 246.545059,86.096642 
	C242.888306,86.582161 238.625641,88.402626 236.563904,86.996338 
	C231.283234,83.394455 226.844742,83.868668 221.535065,86.938705 
	C215.913986,86.514465 211.578979,88.329323 207.629623,92.150024 
	C207.179626,93.523941 207.034363,94.707436 206.495285,95.925797 
	C199.242691,94.222382 192.416168,92.331741 185.499481,90.866898 
	C184.011948,90.551865 182.198715,91.774864 180.478699,92.526932 
	C180.386292,93.094688 180.425369,93.415810 180.461807,94.066132 
	C185.257797,95.958313 190.131104,97.512192 195.273529,99.161682 
	C195.914474,99.338524 196.286331,99.419746 196.827393,99.760773 
	C197.770920,100.100777 198.545212,100.180962 199.668060,100.402252 
	C201.229858,100.861176 202.443115,101.179001 203.877380,101.809189 
	C208.277893,105.336189 206.100479,109.867188 206.191513,113.749191 
	C206.307129,118.677895 208.095856,120.818634 213.275818,120.230186 
	C213.898346,120.406326 214.255005,120.503540 214.755280,120.888206 
	C215.235809,122.119537 215.572754,123.063423 215.873383,124.423279 
	C215.894760,126.226387 215.952438,127.613541 215.830627,129.213837 
	C216.510895,130.475891 217.370651,131.524796 218.323425,132.657837 
	C218.416458,132.741974 218.644714,132.846024 218.459167,133.251862 
	C216.175812,134.224121 214.077988,134.790512 211.591736,135.317139 
	C210.120911,134.940506 208.851257,134.859848 207.985260,134.226898 
	C199.905502,128.321533 191.895020,122.321350 183.878815,115.971649 
	C181.818115,110.525482 178.377304,107.538811 172.282196,108.098602 
	C170.938446,107.193085 169.878815,106.355118 168.869019,105.048981 
	C168.923492,103.752823 168.936569,102.924774 168.931519,102.096832 
	C168.838760,86.925697 168.826782,71.753021 168.542419,56.585453 
	C168.507629,54.729210 167.010483,52.900383 166.130890,50.716118 
	C166.082855,49.910877 166.094986,49.448376 166.318802,48.770432 
	C165.150772,46.248947 163.461960,45.412560 161.271637,47.558964 
	C159.503418,49.291721 157.866638,51.163040 156.044708,52.834621 
	C155.165390,53.641365 153.994125,54.129906 152.955063,54.762527 
	C152.300598,53.554276 151.073318,52.340981 151.083893,51.138588 
	C151.156937,42.847637 151.292297,34.546646 151.812088,26.274296 
	C152.111526,21.508657 149.284485,18.417107 144.834549,20.008236 
	C142.340912,20.899862 139.994446,22.702152 138.065369,24.588724 
	C128.849243,33.601799 119.811058,42.796574 110.683174,51.900242 
	C107.084152,55.489704 103.285538,58.887707 99.814384,62.594440 
	C95.823288,66.856384 92.350304,71.623749 88.199234,75.711517 
	C78.949913,84.819794 69.338631,93.559380 60.026001,102.604820 
	C51.673229,110.717949 43.555798,119.072845 35.265217,127.250793 
	C32.261372,130.213821 31.909910,133.721634 35.141964,135.533951 
	C37.487854,136.849365 40.391819,137.806274 43.048946,137.811066 
	C51.166100,137.825699 59.283226,137.269684 67.403091,137.026733 
	C68.553856,136.992294 69.719757,137.463699 70.299278,137.582367 
	C65.626442,142.732925 60.962353,147.607498 56.646255,152.772827 
	C55.093513,154.631073 54.378010,157.188904 53.210213,159.603516 
	C53.140007,159.779572 52.853947,160.028259 52.575584,160.057159 
	C52.013988,160.409378 51.730751,160.732712 51.447514,161.056046 
	C51.923492,161.350250 52.399471,161.644455 53.177399,162.003143 
	C53.663418,162.159760 53.847492,162.251862 54.119907,162.685089 
	C56.161518,163.678162 58.113659,164.869949 60.068287,164.874039 
	C64.681702,164.883728 69.300026,164.009476 73.909691,164.063431 
	C85.506546,164.199142 97.098122,164.738937 108.694862,164.946457 
	C117.389626,165.102051 118.728180,166.392319 119.099991,174.979279 
	C119.187943,177.010788 120.297905,178.998047 121.065140,181.323090 
	C127.058380,186.258987 132.924225,190.877487 138.815063,195.671295 
	C138.840088,195.846603 138.942245,196.185745 139.004028,196.537720 
	C140.850784,197.718292 142.635788,198.546890 144.471619,199.409637 
	C144.522461,199.443787 144.631348,199.499908 144.476959,199.886841 
	C145.119522,200.749146 145.916504,201.224503 147.051575,201.634857 
	C152.947525,205.714127 158.505402,209.858368 163.840454,214.215332 
	C163.411743,214.952026 163.205872,215.476013 163.000000,216.000000 
z"/>
<path fill="#9A9C9E" opacity="1.000000" stroke="none" 
	d="
M167.997375,214.035614 
	C168.133102,214.492157 168.268829,214.948685 168.202286,215.702606 
	C166.611115,216.000000 165.222214,216.000000 163.416656,216.000000 
	C163.205872,215.476013 163.411743,214.952026 164.233536,214.264221 
	C165.898758,214.078796 166.948059,214.057205 167.997375,214.035614 
z"/>
<path fill="#1C264B" opacity="1.000000" stroke="none" 
	d="
M168.102600,213.747040 
	C166.948059,214.057205 165.898758,214.078796 164.456360,214.051514 
	C158.505402,209.858368 152.947525,205.714127 146.868896,201.383560 
	C145.775864,200.631470 145.203598,200.065689 144.631348,199.499908 
	C144.631348,199.499908 144.522461,199.443787 144.252426,199.179962 
	C142.302338,198.006012 140.622299,197.095886 138.942245,196.185745 
	C138.942245,196.185745 138.840088,195.846603 138.993179,195.357056 
	C140.436417,193.893555 141.726578,192.919617 143.346649,192.026154 
	C149.421112,196.396698 155.165665,200.686768 160.926437,205.328979 
	C160.676117,209.075073 162.099472,211.183105 165.641724,210.865555 
	C169.135376,210.552353 172.700104,209.867523 172.128876,204.597015 
	C182.511276,196.869507 192.745682,189.461578 202.892181,181.935135 
	C204.110489,181.031403 205.661301,179.500961 205.687027,178.233170 
	C205.908264,167.332367 205.814117,156.425156 205.814117,144.484039 
	C194.420990,152.462631 183.899796,159.830597 173.063370,167.008636 
	C171.365738,165.813950 169.983337,164.809174 168.765228,163.501709 
	C180.241272,154.990311 191.553040,146.781601 203.403931,138.181641 
	C190.867111,129.031021 178.983948,120.357483 167.013229,111.331947 
	C166.630981,109.112907 166.336288,107.245872 166.115784,105.224861 
	C166.189941,105.070885 166.119858,104.736336 166.451202,104.866531 
	C167.461441,105.170197 168.140305,105.343666 168.819183,105.517143 
	C169.878815,106.355118 170.938446,107.193085 172.444336,108.413055 
	C176.548569,111.312912 180.206528,113.830772 183.864487,116.348633 
	C191.895020,122.321350 199.905502,128.321533 207.985260,134.226898 
	C208.851257,134.859848 210.120911,134.940506 211.543213,135.637131 
	C211.994278,136.412460 212.105453,136.828018 212.216614,137.243591 
	C211.867584,141.199890 211.518539,145.156189 210.827728,149.858521 
	C210.674652,154.065140 210.863342,157.525726 211.052017,160.986313 
	C211.093842,166.354492 211.135666,171.722687 210.822754,177.841827 
	C210.434875,180.231827 210.401733,181.870880 210.368607,183.509918 
	C209.430878,184.279205 208.493149,185.048477 206.971069,185.902893 
	C205.897400,186.508301 205.408081,187.028549 204.918762,187.548798 
	C192.681778,196.185349 180.444794,204.821915 168.102600,213.747040 
z"/>
<path fill="#D3EAF4" opacity="1.000000" stroke="none" 
	d="
M53.280415,159.427475 
	C54.378010,157.188904 55.093513,154.631073 56.646255,152.772827 
	C60.962353,147.607498 65.626442,142.732925 70.299278,137.582367 
	C69.719757,137.463699 68.553856,136.992294 67.403091,137.026733 
	C59.283226,137.269684 51.166100,137.825699 43.048946,137.811066 
	C40.391819,137.806274 37.487854,136.849365 35.141964,135.533951 
	C31.909910,133.721634 32.261372,130.213821 35.265217,127.250793 
	C43.555798,119.072845 51.673229,110.717949 60.026001,102.604820 
	C69.338631,93.559380 78.949913,84.819794 88.199234,75.711517 
	C92.350304,71.623749 95.823288,66.856384 99.814384,62.594440 
	C103.285538,58.887707 107.084152,55.489704 110.683174,51.900242 
	C119.811058,42.796574 128.849243,33.601799 138.065369,24.588724 
	C139.994446,22.702152 142.340912,20.899862 144.834549,20.008236 
	C149.284485,18.417107 152.111526,21.508657 151.812088,26.274296 
	C151.292297,34.546646 151.156937,42.847637 151.083893,51.138588 
	C151.073318,52.340981 152.300598,53.554276 152.955063,54.762527 
	C153.994125,54.129906 155.165390,53.641365 156.044708,52.834621 
	C157.866638,51.163040 159.503418,49.291721 161.271637,47.558964 
	C163.461960,45.412560 165.150772,46.248947 165.954468,48.745766 
	C161.305328,52.671482 157.309753,56.496788 153.117920,60.093353 
	C151.608215,61.388664 149.626740,62.134132 147.929611,62.653137 
	C147.998657,48.632526 147.998657,35.089298 147.998657,21.546072 
	C147.541183,21.318743 147.083710,21.091413 146.626236,20.864084 
	C109.453888,58.177181 72.281532,95.490280 35.109177,132.803375 
	C35.414242,133.241272 35.719311,133.679184 36.024380,134.117081 
	C49.964172,134.117081 63.903965,134.117081 77.822121,134.448425 
	C69.627129,142.995682 61.453770,151.211578 53.280415,159.427475 
z"/>
<path fill="#0E0D0D" opacity="1.000000" stroke="none" 
	d="
M231.122253,112.182953 
	C231.797256,116.457138 227.844131,116.849503 224.958862,118.861740 
	C223.386505,119.279846 222.500381,119.549316 220.637741,120.115738 
	C220.637741,113.562675 220.637741,107.643623 220.637741,101.724579 
	C220.126328,101.736427 219.614914,101.748283 219.103500,101.760139 
	C219.103500,107.952866 219.103500,114.145599 219.103500,120.600761 
	C217.164200,120.600761 215.887939,120.600761 214.611679,120.600761 
	C214.255005,120.503540 213.898346,120.406326 213.041504,119.935097 
	C208.232681,118.776451 207.225525,115.933861 207.610931,112.001984 
	C207.835037,109.715698 208.146851,107.235306 207.487823,105.134430 
	C207.027115,103.665779 204.989609,102.691757 203.656387,101.496819 
	C202.443115,101.179001 201.229858,100.861176 199.512009,100.125565 
	C198.224350,99.638840 197.441269,99.569901 196.658188,99.500961 
	C196.286331,99.419746 195.914474,99.338524 195.081604,98.848045 
	C189.926788,96.868469 185.232956,95.298157 180.539139,93.727844 
	C180.425369,93.415810 180.386292,93.094688 180.871155,92.422211 
	C183.579285,92.312279 185.907379,92.274193 188.083160,92.831131 
	C193.219116,94.145798 198.254135,95.858963 203.399857,97.127579 
	C204.400497,97.374275 205.717834,96.336319 206.889099,95.890923 
	C207.034363,94.707436 207.179626,93.523941 208.034302,92.179977 
	C209.824387,92.012718 210.905045,92.005936 212.167862,92.333504 
	C216.017273,93.717140 219.758408,96.000481 223.493942,92.019920 
	C225.608292,91.300171 227.353455,90.583412 229.406769,89.926147 
	C230.131332,89.988678 230.547729,89.991714 230.964142,89.994751 
	C231.075500,94.255051 231.186859,98.515343 231.222107,103.599945 
	C233.919983,105.435905 236.693970,106.447556 239.467957,107.459213 
	C239.795273,107.572197 240.122589,107.685181 240.717102,108.906616 
	C240.920227,110.755493 240.856171,111.495934 240.792114,112.236374 
	C240.792114,112.236374 240.377655,112.255898 240.377655,112.255898 
	C240.377655,112.255898 239.974457,112.157898 239.439117,111.749687 
	C237.332626,110.848175 235.748199,109.951469 234.194901,110.002480 
	C233.147949,110.036865 232.144928,111.409164 231.122253,112.182953 
z"/>
<path fill="#486ED1" opacity="1.000000" stroke="none" 
	d="
M53.210213,159.603516 
	C61.453770,151.211578 69.627129,142.995682 77.935890,134.219208 
	C78.098633,133.491028 78.125977,133.323410 78.426712,132.988464 
	C79.805847,132.261078 80.911591,131.701004 81.977036,131.448700 
	C81.629395,132.542328 81.322052,133.328186 80.965988,134.457626 
	C79.938316,136.078018 79.070137,137.461334 77.962051,138.613998 
	C71.723061,145.103973 65.426376,151.538467 58.299145,158.865997 
	C60.999458,159.306213 62.233776,159.668976 63.467384,159.666595 
	C64.924736,159.663788 66.380638,159.194931 67.838615,159.186813 
	C85.514336,159.088303 103.190315,159.037552 120.931633,159.349197 
	C120.985336,160.479828 120.973640,161.235626 120.496017,161.971039 
	C105.462852,161.954376 90.895462,161.917572 76.328468,161.978638 
	C68.895790,162.009781 61.463848,162.216568 54.031570,162.343964 
	C53.847492,162.251862 53.663418,162.159760 53.237915,161.686951 
	C52.948971,160.880264 52.901459,160.454269 52.853947,160.028259 
	C52.853947,160.028259 53.140007,159.779572 53.210213,159.603516 
z"/>
<path fill="#D3EAF4" opacity="1.000000" stroke="none" 
	d="
M54.119907,162.685074 
	C61.463848,162.216568 68.895790,162.009781 76.328468,161.978638 
	C90.895462,161.917572 105.462852,161.954376 120.570221,162.239044 
	C121.184647,162.696945 121.258942,162.866470 121.264633,163.496796 
	C121.109924,169.640289 121.023827,175.322968 120.937729,181.005661 
	C120.297905,178.998047 119.187943,177.010788 119.099991,174.979279 
	C118.728180,166.392319 117.389626,165.102051 108.694862,164.946457 
	C97.098122,164.738937 85.506546,164.199142 73.909691,164.063431 
	C69.300026,164.009476 64.681702,164.883728 60.068287,164.874039 
	C58.113659,164.869949 56.161518,163.678162 54.119907,162.685074 
z"/>
<path fill="#1B2648" opacity="1.000000" stroke="none" 
	d="
M121.065140,181.323090 
	C121.023827,175.322968 121.109924,169.640289 121.675827,163.479904 
	C123.531670,163.027100 124.907692,163.052002 126.403984,163.525116 
	C126.516663,167.439484 126.723236,170.923004 126.443504,174.367035 
	C126.141571,178.084442 127.462708,180.452454 130.622437,182.512772 
	C134.959915,185.341080 138.904053,188.772629 143.016739,191.945694 
	C141.726578,192.919617 140.436417,193.893555 138.968170,195.181732 
	C132.924225,190.877487 127.058380,186.258987 121.065140,181.323090 
z"/>
<path fill="#486ED1" opacity="1.000000" stroke="none" 
	d="
M147.860565,63.130520 
	C149.626740,62.134132 151.608215,61.388664 153.117920,60.093353 
	C157.309753,56.496788 161.305328,52.671482 165.742767,48.961208 
	C166.094986,49.448376 166.082855,49.910877 166.020660,51.167278 
	C166.020355,69.552895 166.070114,87.144615 166.119873,104.736336 
	C166.119858,104.736336 166.189941,105.070885 165.766693,105.104393 
	C164.603409,105.129364 163.863403,105.120827 163.080307,104.653168 
	C164.608521,87.864349 163.825439,71.561363 163.980453,55.247738 
	C163.202209,54.969341 162.423981,54.690941 161.645737,54.412544 
	C157.760757,58.599335 153.875793,62.786125 149.627838,66.981171 
	C147.210327,67.991508 145.155777,68.993584 143.123642,69.657753 
	C144.486023,67.320755 145.825974,65.321655 147.346741,63.300404 
	C147.527542,63.278252 147.860565,63.130520 147.860565,63.130520 
z"/>
<path fill="#292827" opacity="1.000000" stroke="none" 
	d="
M229.098633,89.866653 
	C227.353455,90.583412 225.608292,91.300171 223.389267,91.716225 
	C222.600082,90.640694 222.284744,89.865875 221.982391,88.730347 
	C221.985229,87.888657 221.975128,87.407677 221.965027,86.926697 
	C226.844742,83.868668 231.283234,83.394455 236.563904,86.996338 
	C238.625641,88.402626 242.888306,86.582161 246.900238,86.141907 
	C250.490341,86.134636 250.264206,87.338379 248.610275,88.871910 
	C247.468292,89.930779 246.170013,90.821075 244.941574,91.786697 
	C243.545563,92.192719 242.149567,92.598740 240.284637,92.583359 
	C238.711411,91.857834 237.607071,91.553719 236.502747,91.249596 
	C235.525345,90.706963 234.547958,90.164337 233.196838,89.116547 
	C231.117081,87.651405 229.020844,85.533730 229.098633,89.866653 
z"/>
<path fill="#D3EAF4" opacity="1.000000" stroke="none" 
	d="
M166.451218,104.866531 
	C166.070114,87.144615 166.020355,69.552895 166.080811,51.510017 
	C167.010483,52.900383 168.507629,54.729210 168.542419,56.585453 
	C168.826782,71.753021 168.838760,86.925697 168.931519,102.096832 
	C168.936569,102.924774 168.923492,103.752823 168.869019,105.048981 
	C168.140305,105.343666 167.461441,105.170197 166.451218,104.866531 
z"/>
<path fill="#727171" opacity="1.000000" stroke="none" 
	d="
M212.669907,137.259491 
	C212.105453,136.828018 211.994278,136.412460 211.931641,135.676895 
	C214.077988,134.790512 216.175812,134.224121 218.745453,133.398529 
	C222.145721,135.356903 222.377899,132.820389 223.009689,130.988495 
	C225.244431,132.240555 227.479172,133.492615 229.713913,134.744675 
	C227.308701,135.545563 224.954254,136.710815 222.485382,137.054901 
	C219.414062,137.482925 216.248215,137.232712 212.669907,137.259491 
z"/>
<path fill="#727171" opacity="1.000000" stroke="none" 
	d="
M214.755280,120.888206 
	C215.887939,120.600761 217.164200,120.600761 219.103500,120.600761 
	C219.103500,114.145599 219.103500,107.952866 219.103500,101.760139 
	C219.614914,101.748283 220.126328,101.736427 220.637741,101.724579 
	C220.637741,107.643623 220.637741,113.562675 220.637741,120.115738 
	C222.500381,119.549316 223.386505,119.279846 224.660507,119.027740 
	C224.630463,120.188950 224.212509,121.332787 223.309631,122.870934 
	C220.519699,123.512596 218.214706,123.759949 215.909698,124.007309 
	C215.572754,123.063423 215.235809,122.119537 214.755280,120.888206 
z"/>
<path fill="#1C1B1B" opacity="1.000000" stroke="none" 
	d="
M215.873383,124.423279 
	C218.214706,123.759949 220.519699,123.512596 223.201416,123.235939 
	C223.383713,125.539001 223.189301,127.871368 223.002289,130.596115 
	C222.377899,132.820389 222.145721,135.356903 218.931000,132.992676 
	C218.644714,132.846024 218.416458,132.741974 218.282257,132.348969 
	C217.435410,130.970871 216.722763,129.985779 216.010117,129.000687 
	C215.952438,127.613541 215.894760,126.226387 215.873383,124.423279 
z"/>
<path fill="#444341" opacity="1.000000" stroke="none" 
	d="
M240.813293,112.440735 
	C240.856171,111.495934 240.920227,110.755493 240.907166,108.902885 
	C245.054916,108.818153 249.306305,109.750076 253.493881,110.911919 
	C255.701309,111.524368 259.111816,111.659996 257.846497,115.196129 
	C257.545074,116.038521 254.041809,115.735214 252.175934,115.537521 
	C253.669785,114.998077 254.998932,114.879967 256.328094,114.761864 
	C252.661896,112.534637 248.895020,111.237251 245.043152,110.282829 
	C244.599716,110.172951 243.682755,111.974152 242.985336,112.889282 
	C242.268387,112.807884 241.551453,112.726486 240.813293,112.440735 
z"/>
<path fill="#727171" opacity="1.000000" stroke="none" 
	d="
M206.495285,95.925797 
	C205.717834,96.336319 204.400497,97.374275 203.399857,97.127579 
	C198.254135,95.858963 193.219116,94.145798 188.083160,92.831131 
	C185.907379,92.274193 183.579285,92.312279 180.927963,92.184654 
	C182.198715,91.774864 184.011948,90.551865 185.499481,90.866898 
	C192.416168,92.331741 199.242691,94.222382 206.495285,95.925797 
z"/>
<path fill="#727171" opacity="1.000000" stroke="none" 
	d="
M203.877380,101.809189 
	C204.989609,102.691757 207.027115,103.665779 207.487823,105.134430 
	C208.146851,107.235306 207.835037,109.715698 207.610931,112.001984 
	C207.225525,115.933861 208.232681,118.776451 212.775665,119.856178 
	C208.095856,120.818634 206.307129,118.677895 206.191513,113.749191 
	C206.100479,109.867188 208.277893,105.336189 203.877380,101.809189 
z"/>
<path fill="#050402" opacity="1.000000" stroke="none" 
	d="
M243.323990,113.045547 
	C243.682755,111.974152 244.599716,110.172951 245.043152,110.282829 
	C248.895020,111.237251 252.661896,112.534637 256.328094,114.761864 
	C254.998932,114.879967 253.669785,114.998077 251.948425,115.264450 
	C248.925018,114.675758 246.293839,113.938789 243.323990,113.045547 
z"/>
<path fill="#636260" opacity="1.000000" stroke="none" 
	d="
M245.297485,91.705597 
	C246.170013,90.821075 247.468292,89.930779 248.610275,88.871910 
	C250.264206,87.338379 250.490341,86.134636 247.296799,86.007149 
	C248.099503,84.964935 249.257370,83.967995 250.518127,82.882462 
	C253.476974,88.626625 253.161102,89.128242 245.297485,91.705597 
z"/>
<path fill="#D3EAF4" opacity="1.000000" stroke="none" 
	d="
M183.878815,115.971649 
	C180.206528,113.830772 176.548569,111.312912 172.728455,108.480598 
	C178.377304,107.538811 181.818115,110.525482 183.878815,115.971649 
z"/>
<path fill="#464545" opacity="1.000000" stroke="none" 
	d="
M221.535065,86.938705 
	C221.975128,87.407677 221.985229,87.888657 221.573257,88.727707 
	C218.096024,90.056900 215.040863,91.028023 211.985718,91.999146 
	C210.905045,92.005936 209.824387,92.012718 208.339050,91.989548 
	C211.578979,88.329323 215.913986,86.514465 221.535065,86.938705 
z"/>
<path fill="#727171" opacity="1.000000" stroke="none" 
	d="
M180.461807,94.066139 
	C185.232956,95.298157 189.926788,96.868469 194.812515,98.752426 
	C190.131104,97.512192 185.257797,95.958313 180.461807,94.066139 
z"/>
<path fill="#525565" opacity="1.000000" stroke="none" 
	d="
M211.238678,160.643585 
	C210.863342,157.525726 210.674652,154.065140 210.757843,150.310577 
	C211.161575,153.444702 211.293457,156.872787 211.238678,160.643585 
z"/>
<path fill="#444341" opacity="1.000000" stroke="none" 
	d="
M239.223373,107.233505 
	C236.693970,106.447556 233.919983,105.435905 231.173737,104.041168 
	C233.793915,104.774651 236.386353,105.891220 239.223373,107.233505 
z"/>
<path fill="#444341" opacity="1.000000" stroke="none" 
	d="
M231.355713,111.908401 
	C232.144928,111.409164 233.147949,110.036865 234.194901,110.002480 
	C235.748199,109.951469 237.332626,110.848175 239.252319,111.659599 
	C236.930283,111.863106 234.259735,111.748482 231.355713,111.908401 
z"/>
<path fill="#D3EAF4" opacity="1.000000" stroke="none" 
	d="
M139.004028,196.537720 
	C140.622299,197.095886 142.302338,198.006012 144.201584,199.145813 
	C142.635788,198.546890 140.850784,197.718292 139.004028,196.537720 
z"/>
<path fill="#525565" opacity="1.000000" stroke="none" 
	d="
M210.638031,183.310242 
	C210.401733,181.870880 210.434875,180.231827 210.749054,178.305786 
	C210.989197,179.716034 210.948334,181.413300 210.638031,183.310242 
z"/>
<path fill="#444341" opacity="1.000000" stroke="none" 
	d="
M229.406769,89.926147 
	C229.020844,85.533730 231.117081,87.651405 232.952637,88.879395 
	C232.601257,89.311661 232.120377,89.475906 231.301819,89.817459 
	C230.547729,89.991714 230.131332,89.988678 229.406769,89.926147 
z"/>
<path fill="#727171" opacity="1.000000" stroke="none" 
	d="
M215.830627,129.213837 
	C216.722763,129.985779 217.435410,130.970871 218.189240,132.264832 
	C217.370651,131.524796 216.510895,130.475891 215.830627,129.213837 
z"/>
<path fill="#444341" opacity="1.000000" stroke="none" 
	d="
M236.700195,91.525085 
	C237.607071,91.553719 238.711411,91.857834 239.918365,92.518112 
	C238.979874,92.516380 237.938766,92.158485 236.700195,91.525085 
z"/>
<path fill="#D3EAF4" opacity="1.000000" stroke="none" 
	d="
M144.476959,199.886841 
	C145.203598,200.065689 145.775864,200.631470 146.530807,201.448547 
	C145.916504,201.224503 145.119522,200.749146 144.476959,199.886841 
z"/>
<path fill="#525565" opacity="1.000000" stroke="none" 
	d="
M205.197678,187.534668 
	C205.408081,187.028549 205.897400,186.508301 206.680206,186.007141 
	C206.474655,186.524323 205.975632,187.022430 205.197678,187.534668 
z"/>
<path fill="#727171" opacity="1.000000" stroke="none" 
	d="
M196.827393,99.760773 
	C197.441269,99.569901 198.224350,99.638840 199.163483,99.984467 
	C198.545212,100.180962 197.770920,100.100777 196.827393,99.760773 
z"/>
<path fill="#D3EAF4" opacity="1.000000" stroke="none" 
	d="
M52.575584,160.057159 
	C52.901459,160.454269 52.948971,160.880264 52.935966,161.622467 
	C52.399471,161.644455 51.923492,161.350250 51.447514,161.056046 
	C51.730751,160.732712 52.013988,160.409378 52.575584,160.057159 
z"/>
<path fill="#EAEBEF" opacity="1.000000" stroke="none" 
	d="
M173.378601,167.198547 
	C183.899796,159.830597 194.420990,152.462631 205.814117,144.484039 
	C205.814117,156.425156 205.908264,167.332367 205.687027,178.233170 
	C205.661301,179.500961 204.110489,181.031403 202.892181,181.935135 
	C192.745682,189.461578 182.511276,196.869507 171.679413,204.620590 
	C170.583908,203.563202 169.725906,202.204529 169.704285,200.832657 
	C169.573730,192.559525 169.824432,184.276978 169.546188,176.011093 
	C169.419876,172.258575 170.083450,169.264832 173.378601,167.198547 
z"/>
<path fill="#E9EAF0" opacity="1.000000" stroke="none" 
	d="
M143.346649,192.026154 
	C138.904053,188.772629 134.959915,185.341080 130.622437,182.512772 
	C127.462708,180.452454 126.141571,178.084442 126.443504,174.367035 
	C126.723236,170.923004 126.516663,167.439484 126.547836,163.410950 
	C126.571434,162.848572 126.622475,162.485794 127.035133,162.373322 
	C135.300491,162.155060 143.153198,162.049240 151.295593,162.114990 
	C154.579895,164.345612 157.715012,166.234833 160.504227,168.542206 
	C161.725006,169.552109 162.929138,171.401596 162.961548,172.895432 
	C163.169785,182.487198 163.119812,192.087311 162.945816,201.680908 
	C162.925690,202.791473 161.619919,203.878738 160.910217,204.976822 
	C155.165665,200.686768 149.421112,196.396698 143.346649,192.026154 
z"/>
<path fill="#E8EAF0" opacity="1.000000" stroke="none" 
	d="
M167.100784,111.683952 
	C178.983948,120.357483 190.867111,129.031021 203.403931,138.181641 
	C191.553040,146.781601 180.241272,154.990311 168.396591,163.520172 
	C166.562836,163.587479 165.262009,163.333633 164.144455,162.725784 
	C164.876419,161.233795 165.905731,160.093842 165.901123,158.958099 
	C165.840210,143.911957 165.634048,128.866425 165.588287,113.490685 
	C166.175186,112.668411 166.637985,112.176178 167.100784,111.683952 
z"/>
<path fill="#25335B" opacity="1.000000" stroke="none" 
	d="
M163.961166,163.079773 
	C165.262009,163.333633 166.562836,163.587479 168.232300,163.822845 
	C169.983337,164.809174 171.365738,165.813950 173.063370,167.008636 
	C170.083450,169.264832 169.419876,172.258575 169.546188,176.011093 
	C169.824432,184.276978 169.573730,192.559525 169.704285,200.832657 
	C169.725906,202.204529 170.583908,203.563202 171.504883,204.904388 
	C172.700104,209.867523 169.135376,210.552353 165.641724,210.865555 
	C162.099472,211.183105 160.676117,209.075073 160.926437,205.328979 
	C161.619919,203.878738 162.925690,202.791473 162.945816,201.680908 
	C163.119812,192.087311 163.169785,182.487198 162.961548,172.895432 
	C162.929138,171.401596 161.725006,169.552109 160.504227,168.542206 
	C157.715012,166.234833 154.579895,164.345612 151.286850,161.874176 
	C150.988419,161.461807 150.885620,160.990692 151.134598,160.745789 
	C155.027374,161.293243 158.671188,162.085587 162.588257,162.919540 
	C163.228073,163.000702 163.594620,163.040237 163.961166,163.079773 
z"/>
<path fill="#112981" opacity="1.000000" stroke="none" 
	d="
M167.013229,111.331947 
	C166.637985,112.176178 166.175186,112.668411 165.238907,113.495216 
	C160.791779,116.525658 156.818146,119.221527 152.543365,121.966423 
	C151.481735,122.649963 150.721252,123.284492 149.634155,123.980873 
	C148.469376,124.990097 147.631210,125.937462 146.451340,126.931641 
	C143.739487,128.670959 141.369354,130.363464 138.702393,132.164886 
	C137.616135,132.536453 136.826706,132.799149 136.065857,132.707489 
	C137.445663,130.625824 138.796890,128.898514 140.148132,127.171204 
	C139.793076,126.791969 139.438019,126.412743 139.082962,126.033508 
	C133.157440,130.036041 127.231911,134.038559 121.222488,137.696594 
	C121.533447,136.265640 121.928307,135.179184 122.646828,134.048828 
	C131.965210,127.682762 140.959930,121.360565 150.260071,114.922882 
	C152.089478,113.624016 153.613464,112.440651 155.472961,111.156464 
	C158.239151,109.064255 160.669800,107.072853 163.102600,105.077103 
	C163.104767,105.072746 163.123383,105.112297 163.123383,105.112297 
	C163.863403,105.120827 164.603409,105.129364 165.692520,105.258369 
	C166.336288,107.245872 166.630981,109.112907 167.013229,111.331947 
z"/>
<path fill="#71C3C2" opacity="1.000000" stroke="none" 
	d="
M147.929611,62.653137 
	C147.860565,63.130520 147.527542,63.278252 147.258514,62.889572 
	C146.042862,51.809380 145.096252,41.117870 143.990753,28.631865 
	C109.857719,62.741955 76.557716,96.019577 42.108517,130.445618 
	C46.384918,130.932739 49.510082,131.589951 52.634087,131.584488 
	C60.091888,131.571411 67.548950,131.160461 75.006828,131.143921 
	C76.054169,131.141602 77.104416,132.452667 78.153320,133.155777 
	C78.125977,133.323410 78.098633,133.491028 77.957527,133.887848 
	C63.903965,134.117081 49.964172,134.117081 36.024380,134.117081 
	C35.719311,133.679184 35.414242,133.241272 35.109177,132.803375 
	C72.281532,95.490280 109.453888,58.177181 146.626236,20.864084 
	C147.083710,21.091413 147.541183,21.318743 147.998657,21.546072 
	C147.998657,35.089298 147.998657,48.632526 147.929611,62.653137 
z"/>
<path fill="#C3C3C3" opacity="1.000000" stroke="none" 
	d="
M212.167862,92.333496 
	C215.040863,91.028023 218.096024,90.056900 221.560303,89.088417 
	C222.284744,89.865875 222.600082,90.640694 223.020096,91.719208 
	C219.758408,96.000481 216.017273,93.717140 212.167862,92.333496 
z"/>
<path fill="#51C6C9" opacity="1.000000" stroke="none" 
	d="
M78.426712,132.988464 
	C77.104416,132.452667 76.054169,131.141602 75.006828,131.143921 
	C67.548950,131.160461 60.091888,131.571411 52.634087,131.584488 
	C49.510082,131.589951 46.384918,130.932739 42.108517,130.445618 
	C76.557716,96.019577 109.857719,62.741955 143.990753,28.631865 
	C145.096252,41.117870 146.042862,51.809380 147.077698,62.911724 
	C145.825974,65.321655 144.486023,67.320755 143.088989,69.676971 
	C143.031921,70.034096 143.000839,70.104759 142.691025,70.125092 
	C141.940826,70.756119 141.500458,71.366821 141.032349,71.990883 
	C141.004639,72.004242 140.978455,72.059921 140.640747,72.088547 
	C137.567856,75.080780 134.832657,78.044380 131.867035,81.132439 
	C131.426010,81.530785 131.215378,81.804672 130.665558,82.104782 
	C128.255020,84.421463 126.183640,86.711914 123.943977,89.202774 
	C123.512627,89.629959 123.249565,89.856750 122.676529,90.110863 
	C121.909546,90.756516 121.452538,91.374840 120.657425,92.046562 
	C117.208710,95.396439 114.098106,98.692902 110.680130,102.048668 
	C109.949188,102.740128 109.525620,103.372284 108.941910,104.210747 
	C108.521255,104.648987 108.260742,104.880913 107.661636,105.136093 
	C105.243935,107.436050 103.164818,109.712746 100.928436,112.200523 
	C100.509018,112.643799 100.246872,112.875992 99.679375,113.134247 
	C98.970009,113.776131 98.566002,114.391968 97.984055,115.256790 
	C97.210945,116.058060 96.615791,116.610344 95.679535,117.159874 
	C93.240776,119.452744 91.143097,121.748375 88.704514,124.088379 
	C86.288971,126.432861 84.214325,128.732971 82.099907,131.049622 
	C82.060135,131.066162 82.017342,131.140915 82.017342,131.140915 
	C80.911591,131.701004 79.805847,132.261078 78.426712,132.988464 
z"/>
<path fill="#435EF2" opacity="1.000000" stroke="none" 
	d="
M122.323166,134.092712 
	C121.928307,135.179184 121.533447,136.265640 121.107147,137.936401 
	C121.015823,138.687210 120.955933,138.853699 120.751991,139.111176 
	C120.707497,139.463699 120.807060,139.725220 120.958939,140.453308 
	C120.962898,146.938034 120.914566,152.956192 120.866234,158.974365 
	C103.190315,159.037552 85.514336,159.088303 67.838615,159.186813 
	C66.380638,159.194931 64.924736,159.663788 63.467384,159.666595 
	C62.233776,159.668976 60.999458,159.306213 58.299145,158.865997 
	C65.426376,151.538467 71.723061,145.103973 77.962051,138.613998 
	C79.070137,137.461334 79.938316,136.078018 81.360214,134.435089 
	C82.856178,134.041870 83.909203,134.014786 85.435036,134.000381 
	C98.046280,134.039627 110.184723,134.066162 122.323166,134.092712 
z"/>
<path fill="#061C6E" opacity="1.000000" stroke="none" 
	d="
M120.931633,159.349197 
	C120.914566,152.956192 120.962898,146.938034 121.005188,140.211182 
	C120.999146,139.502487 120.896049,139.020172 120.896049,139.020172 
	C120.955933,138.853699 121.015823,138.687210 121.191055,138.280899 
	C127.231911,134.038559 133.157440,130.036041 139.082962,126.033508 
	C139.438019,126.412743 139.793076,126.791969 140.148132,127.171204 
	C138.796890,128.898514 137.445663,130.625824 135.984299,132.980515 
	C135.730835,133.959396 135.587494,134.310898 135.190704,134.656219 
	C134.619629,134.760345 134.301971,134.870667 133.666565,135.087448 
	C132.000412,136.254318 130.652023,137.314713 129.184830,138.468552 
	C131.467514,140.204193 133.253433,141.562119 135.078079,143.267090 
	C135.849014,144.015396 136.581207,144.416672 137.644699,144.891464 
	C142.979080,148.310623 147.982162,151.656250 152.990936,155.001663 
	C152.996628,155.001434 152.997696,155.014709 153.141922,155.317078 
	C156.295761,158.038925 159.305374,160.458435 162.314987,162.877930 
	C158.671188,162.085587 155.027374,161.293243 150.806152,160.685120 
	C147.147049,158.947906 144.065338,157.026474 140.852737,154.855591 
	C140.234894,154.349365 139.747940,154.092560 139.143066,153.549805 
	C138.354538,152.857559 137.683929,152.451279 137.011261,152.017227 
	C137.009186,151.989471 136.953140,151.986755 136.818329,151.681244 
	C133.808624,149.283722 130.933746,147.191727 126.622475,144.054489 
	C126.622475,151.229782 126.622475,156.857788 126.622475,162.485794 
	C126.622475,162.485794 126.571434,162.848572 126.427582,162.962738 
	C124.907692,163.052002 123.531670,163.027100 121.744446,163.019104 
	C121.258942,162.866470 121.184647,162.696945 121.036148,162.259430 
	C120.973640,161.235626 120.985336,160.479828 120.931633,159.349197 
z"/>
<path fill="#1A61D6" opacity="1.000000" stroke="none" 
	d="
M84.962234,133.987686 
	C83.909203,134.014786 82.856178,134.041870 81.408928,134.091507 
	C81.322052,133.328186 81.629395,132.542328 81.977036,131.448700 
	C82.017342,131.140915 82.060135,131.066162 82.406937,131.000793 
	C83.830063,130.287964 84.906395,129.640503 85.987259,129.361984 
	C85.648605,131.149841 85.305420,132.568756 84.962234,133.987686 
z"/>
<path fill="#3D5BF7" opacity="1.000000" stroke="none" 
	d="
M155.137451,111.257278 
	C153.613464,112.440651 152.089478,113.624016 150.091599,114.574219 
	C149.087952,113.162094 148.109207,111.987213 148.098495,110.803558 
	C148.001205,100.060234 148.083267,89.315392 148.087616,78.570976 
	C148.088654,76.031235 147.994751,73.491463 148.007477,70.626938 
	C148.710556,69.192413 149.350693,68.082664 149.990814,66.972916 
	C153.875793,62.786125 157.760757,58.599335 161.645737,54.412544 
	C162.423981,54.690941 163.202209,54.969341 163.980453,55.247738 
	C163.825439,71.561363 164.608521,87.864349 163.080307,104.653168 
	C163.123383,105.112297 163.104767,105.072746 162.730499,105.089104 
	C159.091660,106.148880 155.511536,106.822044 155.137451,111.257278 
z"/>
<path fill="#1A61D6" opacity="1.000000" stroke="none" 
	d="
M149.627838,66.981171 
	C149.350693,68.082664 148.710556,69.192413 147.646530,70.645905 
	C145.965576,71.683205 144.453842,72.129189 143.496368,73.114021 
	C139.721436,76.996819 136.267471,81.199959 132.389130,84.970200 
	C130.623444,86.686661 128.146454,87.671432 126.132431,88.687317 
	C127.850075,86.283882 129.427414,84.181221 131.004745,82.078560 
	C131.215378,81.804672 131.426010,81.530785 132.198105,81.084396 
	C135.499207,77.961235 138.238831,75.010574 140.978455,72.059921 
	C140.978455,72.059921 141.004639,72.004242 141.334290,71.952560 
	C142.109558,71.302162 142.555191,70.703461 143.000839,70.104759 
	C143.000839,70.104759 143.031921,70.034096 143.066574,70.014877 
	C145.155777,68.993584 147.210327,67.991508 149.627838,66.981171 
z"/>
<path fill="#4F62C3" opacity="1.000000" stroke="none" 
	d="
M140.983627,155.105042 
	C144.065338,157.026474 147.147049,158.947906 150.557190,160.930023 
	C150.885620,160.990692 150.988419,161.461807 150.997162,161.702606 
	C143.153198,162.049240 135.300491,162.155060 127.035133,162.373322 
	C126.622475,156.857788 126.622475,151.229782 126.622475,144.054489 
	C130.933746,147.191727 133.808624,149.283722 136.452057,151.681000 
	C135.180359,151.543594 134.167374,151.012665 133.092926,150.680756 
	C131.769577,150.271942 129.881393,149.350143 129.172729,149.886337 
	C128.288910,150.555038 128.061752,152.486450 128.071320,153.869034 
	C128.103561,158.525330 130.999786,159.564117 135.028000,159.046936 
	C137.688034,158.705399 141.573593,160.319977 140.983627,155.105042 
z"/>
<path fill="#475DD3" opacity="1.000000" stroke="none" 
	d="
M162.588257,162.919540 
	C159.305374,160.458435 156.295761,158.038925 153.558075,155.316467 
	C154.478378,155.145691 155.132996,155.252991 155.774124,155.413925 
	C162.219467,157.031891 163.009323,156.432297 163.011520,149.874084 
	C163.014359,141.392105 163.088409,132.908966 162.958954,124.428955 
	C162.924286,122.157906 162.260620,119.896461 161.983063,118.218964 
	C158.465454,119.642570 155.654984,120.779984 152.844513,121.917404 
	C156.818146,119.221527 160.791779,116.525658 165.114792,113.825256 
	C165.634048,128.866425 165.840210,143.911957 165.901123,158.958099 
	C165.905731,160.093842 164.876419,161.233795 164.144455,162.725769 
	C163.594620,163.040237 163.228073,163.000702 162.588257,162.919540 
z"/>
<path fill="#1E53F0" opacity="1.000000" stroke="none" 
	d="
M125.992111,88.988083 
	C128.146454,87.671432 130.623444,86.686661 132.389130,84.970200 
	C136.267471,81.199959 139.721436,76.996819 143.496368,73.114021 
	C144.453842,72.129189 145.965576,71.683205 147.583572,70.970673 
	C147.994751,73.491463 148.088654,76.031235 148.087616,78.570976 
	C148.083267,89.315392 148.001205,100.060234 148.098495,110.803558 
	C148.109207,111.987213 149.087952,113.162094 149.786179,114.689713 
	C140.959930,121.360565 131.965210,127.682762 122.646828,134.048828 
	C110.184723,134.066162 98.046280,134.039627 85.435036,134.000381 
	C85.305420,132.568756 85.648605,131.149841 85.994949,129.363556 
	C85.998116,128.996216 85.994606,128.983337 86.360390,128.989471 
	C91.031357,127.413193 94.207161,124.797089 94.985138,119.985214 
	C94.992363,119.990654 94.977562,119.975113 95.346527,119.977257 
	C100.278038,118.633560 103.234795,115.802750 104.246864,110.965157 
	C104.456070,110.950211 104.875389,110.938820 105.236191,110.925163 
	C107.393700,108.601883 109.190399,106.292259 110.991364,103.991043 
	C110.995644,103.999435 110.982918,103.989525 111.338623,103.959900 
	C115.913673,102.111542 119.591866,99.734108 120.975082,94.979843 
	C120.998352,94.996376 120.960487,94.953171 121.306877,94.912018 
	C122.099892,93.911758 122.546516,92.952652 122.996445,91.996529 
	C122.999756,91.999512 122.993408,91.992950 123.334267,91.962265 
	C124.446381,90.950699 125.217628,89.969826 125.993668,88.993454 
	C125.998459,88.997955 125.992111,88.988083 125.992111,88.988083 
z"/>
<path fill="#3D5CF8" opacity="1.000000" stroke="none" 
	d="
M152.543365,121.966423 
	C155.654984,120.779984 158.465454,119.642570 161.983063,118.218964 
	C162.260620,119.896461 162.924286,122.157906 162.958954,124.428955 
	C163.088409,132.908966 163.014359,141.392105 163.011520,149.874084 
	C163.009323,156.432297 162.219467,157.031891 155.774124,155.413925 
	C155.132996,155.252991 154.478378,155.145691 153.413849,155.014099 
	C152.997696,155.014709 152.996628,155.001434 152.962769,154.656464 
	C149.506653,151.317795 145.993378,148.420624 142.687836,145.303162 
	C139.404678,142.206848 133.863953,140.957123 133.984314,134.980988 
	C134.301971,134.870667 134.619629,134.760345 135.630493,134.755066 
	C137.206436,134.901855 138.089127,134.943604 139.415756,134.990646 
	C149.396210,134.957458 149.864609,134.500107 148.326385,126.846588 
	C149.058472,125.766159 149.509628,124.842590 149.960770,123.919022 
	C150.721252,123.284492 151.481735,122.649963 152.543365,121.966423 
z"/>
<path fill="#2951E3" opacity="1.000000" stroke="none" 
	d="
M148.045456,127.003441 
	C149.864609,134.500107 149.396210,134.957458 139.420654,134.624237 
	C138.987503,133.520355 138.993362,132.788162 138.999222,132.055984 
	C141.369354,130.363464 143.739487,128.670959 146.764542,126.969376 
	C147.628113,126.974686 147.836792,126.989059 148.045456,127.003441 
z"/>
<path fill="#486ED1" opacity="1.000000" stroke="none" 
	d="
M155.472961,111.156464 
	C155.511536,106.822044 159.091660,106.148880 162.728333,105.093460 
	C160.669800,107.072853 158.239151,109.064255 155.472961,111.156464 
z"/>
<path fill="#475DD3" opacity="1.000000" stroke="none" 
	d="
M148.326385,126.846588 
	C147.836792,126.989059 147.628113,126.974686 147.106247,126.922569 
	C147.631210,125.937462 148.469376,124.990097 149.634155,123.980865 
	C149.509628,124.842590 149.058472,125.766159 148.326385,126.846588 
z"/>
<path fill="#475DD3" opacity="1.000000" stroke="none" 
	d="
M138.702393,132.164886 
	C138.993362,132.788162 138.987503,133.520355 138.976746,134.618958 
	C138.089127,134.943604 137.206436,134.901855 135.883942,134.761261 
	C135.587494,134.310898 135.730835,133.959396 135.955719,133.334869 
	C136.826706,132.799149 137.616135,132.536453 138.702393,132.164886 
z"/>
<path fill="#1A61D6" opacity="1.000000" stroke="none" 
	d="
M104.037659,110.980103 
	C103.234795,115.802750 100.278038,118.633560 95.467247,119.697220 
	C95.486214,118.664230 95.753418,117.913429 96.020630,117.162628 
	C96.615791,116.610344 97.210945,116.058060 98.272842,115.205811 
	C99.154633,114.306633 99.569687,113.707413 99.984734,113.108200 
	C100.246872,112.875992 100.509018,112.643799 101.239105,112.172516 
	C102.483917,111.615654 103.260788,111.297882 104.037659,110.980103 
z"/>
<path fill="#486ED1" opacity="1.000000" stroke="none" 
	d="
M110.987503,101.989365 
	C114.098106,98.692902 117.208710,95.396439 120.682098,92.072227 
	C121.044891,92.044487 121.094910,92.095093 121.055023,92.450577 
	C120.996918,93.521767 120.978706,94.237465 120.960495,94.953171 
	C120.960487,94.953171 120.998352,94.996376 120.632233,95.011246 
	C117.212280,97.384148 114.158447,99.742180 111.075455,102.072372 
	C111.046303,102.044518 110.987503,101.989365 110.987503,101.989365 
z"/>
<path fill="#486ED1" opacity="1.000000" stroke="none" 
	d="
M140.640747,72.088547 
	C138.238831,75.010574 135.499207,77.961235 132.428528,80.959946 
	C134.832657,78.044380 137.567856,75.080780 140.640747,72.088547 
z"/>
<path fill="#486ED1" opacity="1.000000" stroke="none" 
	d="
M104.246864,110.965157 
	C103.260788,111.297882 102.483917,111.615654 101.396378,111.961441 
	C103.164818,109.712746 105.243935,107.436050 107.619217,105.465836 
	C106.902061,107.494492 105.888725,109.216660 104.875397,110.938820 
	C104.875389,110.938820 104.456070,110.950211 104.246864,110.965157 
z"/>
<path fill="#1A61D6" opacity="1.000000" stroke="none" 
	d="
M105.236198,110.925163 
	C105.888725,109.216660 106.902061,107.494492 107.957809,105.442581 
	C108.260742,104.880913 108.521255,104.648987 109.255058,104.209229 
	C110.147934,103.995148 110.567513,103.988892 110.987091,103.982643 
	C109.190399,106.292259 107.393700,108.601883 105.236198,110.925163 
z"/>
<path fill="#486ED1" opacity="1.000000" stroke="none" 
	d="
M130.665558,82.104782 
	C129.427414,84.181221 127.850075,86.283882 126.132431,88.687317 
	C125.992111,88.988083 125.998459,88.997955 125.680328,88.991714 
	C124.945557,88.991104 124.528915,88.996735 124.112267,89.002365 
	C126.183640,86.711914 128.255020,84.421463 130.665558,82.104782 
z"/>
<path fill="#486ED1" opacity="1.000000" stroke="none" 
	d="
M85.990417,128.994629 
	C84.906395,129.640503 83.830063,130.287964 82.446709,130.984253 
	C84.214325,128.732971 86.288971,126.432861 88.724106,124.108521 
	C89.084595,124.084305 89.124840,124.124756 89.045624,124.439392 
	C87.975815,126.163795 86.985207,127.573563 85.994606,128.983337 
	C85.994606,128.983337 85.998116,128.996216 85.990417,128.994629 
z"/>
<path fill="#486ED1" opacity="1.000000" stroke="none" 
	d="
M95.679535,117.159866 
	C95.753418,117.913429 95.486214,118.664230 95.098282,119.695068 
	C94.977562,119.975113 94.992363,119.990654 94.689606,120.131554 
	C92.632851,121.556557 90.878845,122.840660 89.124840,124.124756 
	C89.124840,124.124756 89.084595,124.084305 89.065010,124.064156 
	C91.143097,121.748375 93.240776,119.452744 95.679535,117.159866 
z"/>
<path fill="#1A61D6" opacity="1.000000" stroke="none" 
	d="
M123.943977,89.202774 
	C124.528915,88.996735 124.945557,88.991104 125.675545,88.987213 
	C125.217628,89.969826 124.446381,90.950699 123.329819,91.643585 
	C122.985168,90.931572 122.985840,90.507553 122.986504,90.083534 
	C123.249565,89.856750 123.512627,89.629959 123.943977,89.202774 
z"/>
<path fill="#486ED1" opacity="1.000000" stroke="none" 
	d="
M99.679375,113.134247 
	C99.569687,113.707413 99.154633,114.306633 98.450790,114.956833 
	C98.566002,114.391968 98.970009,113.776131 99.679375,113.134247 
z"/>
<path fill="#486ED1" opacity="1.000000" stroke="none" 
	d="
M142.691025,70.125092 
	C142.555191,70.703461 142.109558,71.302162 141.362000,71.939194 
	C141.500458,71.366821 141.940826,70.756119 142.691025,70.125092 
z"/>
<path fill="#486ED1" opacity="1.000000" stroke="none" 
	d="
M110.991371,103.991043 
	C110.567513,103.988892 110.147934,103.995148 109.415207,104.002914 
	C109.525620,103.372284 109.949188,102.740128 110.680130,102.048668 
	C110.987503,101.989365 111.046303,102.044518 111.038483,102.385361 
	C111.014755,103.147316 110.998833,103.568420 110.982918,103.989525 
	C110.982918,103.989525 110.995644,103.999435 110.991371,103.991043 
z"/>
<path fill="#486ED1" opacity="1.000000" stroke="none" 
	d="
M122.676529,90.110863 
	C122.985840,90.507553 122.985168,90.931572 122.988953,91.674271 
	C122.993408,91.992950 122.999756,91.999512 122.679047,91.997169 
	C121.937187,92.028244 121.516052,92.061668 121.094910,92.095093 
	C121.094910,92.095093 121.044891,92.044487 121.020218,92.018822 
	C121.452538,91.374840 121.909546,90.756516 122.676529,90.110863 
z"/>
<path fill="#486ED1" opacity="1.000000" stroke="none" 
	d="
M120.751991,139.111176 
	C120.896049,139.020172 120.999146,139.502487 120.952888,139.744614 
	C120.807060,139.725220 120.707497,139.463699 120.751991,139.111176 
z"/>
<path fill="#405CEE" opacity="1.000000" stroke="none" 
	d="
M140.852737,154.855591 
	C141.573593,160.319977 137.688034,158.705399 135.028000,159.046936 
	C130.999786,159.564117 128.103561,158.525330 128.071320,153.869034 
	C128.061752,152.486450 128.288910,150.555038 129.172729,149.886337 
	C129.881393,149.350143 131.769577,150.271942 133.092926,150.680756 
	C134.167374,151.012665 135.180359,151.543594 136.586884,151.986511 
	C136.953140,151.986755 137.009186,151.989471 137.065399,152.344635 
	C137.834732,153.078461 138.547852,153.457123 139.260986,153.835770 
	C139.747940,154.092560 140.234894,154.349365 140.852737,154.855591 
z"/>
<path fill="#475DD3" opacity="1.000000" stroke="none" 
	d="
M133.666565,135.087433 
	C133.863953,140.957123 139.404678,142.206848 142.687836,145.303162 
	C145.993378,148.420624 149.506653,151.317795 152.957077,154.656693 
	C147.982162,151.656250 142.979080,148.310623 137.514603,144.603424 
	C136.381927,143.801239 135.710648,143.360641 135.039352,142.920044 
	C133.253433,141.562119 131.467514,140.204193 129.184830,138.468552 
	C130.652023,137.314713 132.000412,136.254318 133.666565,135.087433 
z"/>
<path fill="#4F62C3" opacity="1.000000" stroke="none" 
	d="
M139.143066,153.549805 
	C138.547852,153.457123 137.834732,153.078461 137.067474,152.372406 
	C137.683929,152.451279 138.354538,152.857559 139.143066,153.549805 
z"/>
<path fill="#112981" opacity="1.000000" stroke="none" 
	d="
M135.078079,143.267090 
	C135.710648,143.360641 136.381927,143.801239 137.183319,144.529877 
	C136.581207,144.416672 135.849014,144.015396 135.078079,143.267090 
z"/>
<path fill="#1A61D6" opacity="1.000000" stroke="none" 
	d="
M111.338623,103.959900 
	C110.998833,103.568420 111.014755,103.147316 111.067642,102.413216 
	C114.158447,99.742180 117.212280,97.384148 120.608971,94.994713 
	C119.591866,99.734108 115.913673,102.111542 111.338623,103.959900 
z"/>
<path fill="#1A61D6" opacity="1.000000" stroke="none" 
	d="
M89.045624,124.439392 
	C90.878845,122.840660 92.632851,121.556557 94.682381,120.126114 
	C94.207161,124.797089 91.031357,127.413193 86.360390,128.989471 
	C86.985207,127.573563 87.975815,126.163795 89.045624,124.439392 
z"/>
<path fill="#1A61D6" opacity="1.000000" stroke="none" 
	d="
M121.055023,92.450577 
	C121.516052,92.061668 121.937187,92.028244 122.675735,91.994186 
	C122.546516,92.952652 122.099892,93.911758 121.306885,94.912018 
	C120.978706,94.237465 120.996918,93.521767 121.055023,92.450577 
z"/>
</svg>