<svg version="1.1" id="Layer_1" xmlns="http://www.w3.org/2000/svg" xmlns:xlink="http://www.w3.org/1999/xlink" x="0px" y="0px"
	 width="100%" viewBox="0 0 590 889" enable-background="new 0 0 590 889" xml:space="preserve">
<path fill="#F2F1EF" opacity="1.000000" stroke="none" 
	d="
M591.000000,151.000000 
	C591.000000,346.359161 591.000000,541.718323 590.538757,737.538757 
	C393.718353,738.000000 197.359177,738.000000 1.000000,738.000000 
	C1.000000,542.640808 1.000000,347.281677 1.438080,151.284561 
	C2.542076,150.629501 3.207991,150.597382 3.873907,150.597382 
	C198.106613,150.595001 392.339325,150.593948 586.572021,150.611420 
	C588.048035,150.611557 589.523987,150.864899 591.000000,151.000000 
M348.629425,350.763763 
	C346.068817,351.012726 343.508179,351.261688 340.259827,351.257263 
	C330.488831,344.219788 320.717834,337.182312 310.849030,329.388000 
	C310.021271,329.005707 309.193481,328.623413 307.719299,328.136169 
	C304.106873,325.762878 300.494415,323.389587 296.910400,320.615326 
	C296.910400,320.615326 296.853729,320.216034 296.954742,319.250671 
	C296.975281,307.832153 297.001495,296.413666 297.014069,284.995148 
	C297.021088,278.616516 297.013092,272.237885 296.996704,265.859283 
	C296.989044,262.879486 295.040863,262.205750 293.135193,263.664398 
	C291.416229,264.980133 290.487701,267.328613 289.002869,269.016083 
	C289.002869,269.016083 289.222809,269.208008 288.379700,269.073700 
	C285.849701,270.233551 283.319702,271.393372 280.552185,272.662109 
	C280.552185,266.933868 280.551270,261.366425 280.552429,255.798965 
	C280.553864,248.784210 283.155823,241.390427 277.397308,234.363403 
	C274.703918,236.148132 271.886658,237.373428 269.945404,239.426865 
	C264.995758,244.662582 260.646149,250.467880 255.667404,255.673172 
	C249.873810,261.730377 243.688370,267.414703 237.633057,273.219208 
	C229.319778,281.188232 220.870743,289.018433 212.668304,297.099335 
	C207.045593,302.638702 201.785294,308.544098 196.287491,314.212646 
	C189.584259,321.124054 182.876724,328.034637 176.019547,334.791840 
	C172.956512,337.810242 169.269760,340.219727 166.371033,343.370178 
	C165.007828,344.851715 163.830185,347.792542 164.410751,349.411407 
	C164.990829,351.028900 167.821350,352.706818 169.752808,352.816437 
	C176.729660,353.212311 183.743347,352.957642 190.743134,352.951263 
	C194.240173,352.948090 197.737198,352.950714 202.523270,352.950714 
	C200.787033,355.237122 200.001358,356.619690 198.896744,357.665344 
	C194.440994,361.883270 189.765167,365.876465 185.446457,370.226532 
	C184.223999,371.457916 183.938232,373.619232 183.085724,375.726685 
	C183.085724,375.726685 182.816772,376.018738 182.138535,376.155762 
	C180.063660,380.923706 183.857498,379.927948 186.082092,379.938049 
	C204.246964,380.020660 222.412354,379.978241 240.577545,379.999847 
	C244.530640,380.004547 248.950455,378.916626 251.095093,384.921783 
	C251.045319,387.942505 250.995544,390.963196 250.634842,394.175293 
	C250.739914,394.454346 250.844986,394.733429 251.111694,395.748535 
	C252.388062,397.698578 253.254150,400.195587 255.007019,401.510376 
	C266.938416,410.459747 279.083008,419.124451 291.074005,427.995575 
	C292.287262,428.893158 292.937683,430.551544 292.939392,431.721252 
	C282.853607,431.721252 272.767792,431.721252 262.844147,431.721252 
	C261.843842,436.649384 263.599030,438.657928 267.656921,438.540924 
	C270.751495,438.451721 271.529694,439.827179 271.511597,442.781281 
	C271.397461,461.442841 271.403320,480.105865 271.526550,498.767395 
	C271.547852,501.993530 270.568359,503.222260 267.258636,503.116364 
	C262.974854,502.979248 261.889648,505.505005 263.095367,510.401306 
	C278.430237,509.863129 293.868530,509.803864 309.200317,508.495880 
	C313.939606,508.091614 319.010437,505.048370 322.858154,501.902893 
	C336.113525,491.066772 338.052460,476.338837 335.150269,460.599548 
	C331.832062,442.604126 317.531616,431.429138 298.749115,431.258911 
	C299.804016,430.126495 300.711517,428.793671 301.936676,427.892792 
	C313.707062,419.237305 325.451508,410.541656 337.398346,402.134583 
	C340.206848,400.158234 341.304779,398.074005 341.276459,394.759338 
	C341.161560,381.298309 341.233490,367.835693 341.937531,353.917755 
	C344.001251,353.587830 346.054413,353.113281 348.131165,352.961823 
	C351.249054,352.734497 354.448303,353.087494 357.491150,352.529449 
	C360.126862,352.046051 361.381561,350.463867 357.566833,348.129120 
	C356.135132,347.845856 354.703400,347.562592 353.533875,346.388336 
	C353.567200,343.947357 353.600555,341.506378 353.673370,338.267395 
	C353.732452,337.483276 353.791504,336.699127 354.263611,335.350128 
	C357.225250,332.740265 360.186859,330.130432 364.135468,326.650848 
	C369.564362,328.219208 376.541199,330.353394 383.601227,332.163116 
	C384.847870,332.482635 386.441864,331.447174 387.875427,331.037384 
	C386.934265,329.910797 386.194977,328.126282 385.018860,327.765442 
	C377.890961,325.578491 370.663422,323.716400 362.915985,321.069672 
	C362.273010,316.057312 361.630005,311.044952 361.033051,306.391357 
	C366.004639,307.116119 370.079590,308.714355 373.629761,307.931824 
	C376.871246,307.217377 382.607666,306.516144 380.715576,300.094330 
	C378.089386,301.343964 375.619965,302.519012 372.279633,303.501617 
	C370.798950,303.619904 369.318298,303.738190 367.252808,303.413910 
	C365.367798,302.404419 363.482819,301.394897 361.139465,299.886353 
	C359.277222,300.147736 357.415009,300.409119 354.894867,300.969757 
	C352.243927,301.605499 349.592987,302.241211 346.247620,302.839417 
	C344.460968,303.995941 342.674347,305.152435 340.366333,306.526733 
	C340.222595,306.648468 340.078888,306.770172 339.190063,306.816711 
	C337.890472,308.512512 336.590881,310.208344 335.150543,312.087769 
	C332.652100,311.700592 329.815582,311.261047 326.496521,310.602264 
	C326.152771,310.525055 325.808990,310.447876 325.099457,309.873962 
	C324.324707,309.777130 323.549988,309.680298 322.119141,309.306061 
	C321.200348,309.075165 320.281525,308.844269 319.070282,308.059509 
	C318.296906,307.957794 317.523529,307.856079 316.180206,307.512421 
	C315.777924,307.423248 315.375671,307.334045 314.568176,306.719513 
	C313.321991,307.100739 312.075775,307.481995 310.442444,308.567871 
	C310.591675,309.067139 310.740906,309.566437 310.959381,310.763306 
	C312.691132,311.293823 314.422852,311.824310 316.735565,312.669250 
	C317.170563,312.717682 317.605530,312.766113 318.474396,313.380737 
	C321.038757,313.993347 323.603119,314.605988 326.866821,315.569763 
	C329.856567,316.414307 332.846283,317.258881 336.114502,318.996887 
	C336.277771,322.130890 336.541992,325.263580 336.583832,328.399200 
	C336.678009,335.458282 336.837128,335.671295 344.734100,336.635590 
	C345.167175,336.747345 345.600281,336.859131 346.073761,337.664276 
	C346.117767,338.124878 346.161774,338.585480 345.749695,339.817169 
	C345.823517,343.230621 344.545654,347.113464 349.231781,349.968567 
	C349.317993,350.285919 349.404236,350.603241 348.629425,350.763763 
M208.411224,509.904144 
	C211.154022,509.904144 213.896820,509.904144 216.532974,509.904144 
	C217.313385,505.026367 215.695541,502.857544 211.588089,503.074554 
	C208.396301,503.243164 207.640686,501.765472 207.714615,498.870544 
	C207.876160,492.544922 207.696091,486.210724 207.840485,479.884247 
	C207.870056,478.589020 208.333267,476.719055 209.247070,476.139282 
	C211.879349,474.469208 218.296707,476.232391 220.433533,478.906799 
	C227.080109,487.225555 234.112091,495.280701 240.169754,504.010437 
	C244.353912,510.040314 249.403091,510.715363 257.217834,509.164093 
	C255.695587,506.868561 254.565369,503.627075 253.336914,503.589355 
	C249.016876,503.456879 247.336624,500.441254 245.206253,497.784302 
	C240.314621,491.683624 235.474075,485.541626 230.653381,479.384613 
	C229.593979,478.031464 228.703613,476.546021 227.567963,474.875153 
	C229.287918,474.218170 230.339813,473.803223 231.400833,473.413116 
	C242.033020,469.503845 247.429214,461.213043 246.443970,450.292664 
	C245.562653,440.524445 239.818481,434.126617 228.428955,432.823669 
	C217.732605,431.600067 206.848145,432.006165 196.045288,431.743011 
	C194.310684,431.700745 192.570007,431.908447 190.919189,431.995972 
	C190.031281,436.621246 191.620087,438.733612 195.747208,438.549774 
	C198.992905,438.405182 199.522797,440.078705 199.510803,442.885406 
	C199.431152,461.541290 199.443771,480.197968 199.541107,498.853790 
	C199.556107,501.727631 198.825455,503.221802 195.657913,503.113678 
	C191.190872,502.961212 189.868317,505.342316 190.928314,509.903503 
	C196.521866,509.903503 201.977951,509.903503 208.411224,509.904144 
M384.198364,466.757446 
	C376.571289,466.757446 368.944244,466.757446 361.020752,466.757446 
	C361.020752,457.415741 361.020752,448.514984 361.020752,439.320984 
	C371.454254,439.320984 381.679688,439.320984 391.833801,439.320984 
	C394.285919,450.446350 394.285919,450.446350 400.005402,449.385376 
	C400.005402,443.702362 400.005402,437.970795 400.005402,432.110840 
	C381.103851,432.110840 362.413574,432.110840 343.560730,432.110840 
	C343.000916,435.999268 343.890961,438.635620 347.936584,438.481964 
	C351.867523,438.332642 352.537109,440.160614 352.513000,443.593262 
	C352.384308,461.909119 352.396667,480.226715 352.509399,498.542816 
	C352.528229,501.602722 351.883179,503.283539 348.444183,503.103912 
	C344.157684,502.879974 342.947937,505.270813 343.718933,509.523865 
	C362.473236,509.523865 381.149658,509.523865 399.894379,509.523865 
	C399.894379,503.441193 399.894379,497.709473 399.894379,492.017761 
	C393.663971,491.464691 393.208496,491.976166 392.609222,497.423431 
	C392.413086,499.206543 391.171356,502.331665 390.318024,502.362488 
	C380.585785,502.714508 370.836151,502.586273 361.159302,502.586273 
	C361.159302,492.682068 361.159302,483.489685 361.159302,473.872925 
	C371.037872,473.872925 380.462311,473.872925 390.207214,473.872925 
	C390.207214,471.369843 390.207214,469.305389 390.207214,467.348755 
	C389.682190,467.088715 389.397614,466.833771 389.102875,466.821381 
	C387.773651,466.765533 386.441589,466.778290 384.198364,466.757446 
M544.049255,461.418976 
	C543.662598,459.801971 543.392395,458.146271 542.870911,456.573975 
	C538.302856,442.801208 529.280457,433.791870 514.686951,431.474854 
	C500.006714,429.144073 487.114990,432.793304 478.037384,445.235657 
	C469.739227,456.609680 468.596222,469.619324 471.840942,482.914246 
	C475.380280,497.416077 484.450165,506.921143 499.389587,509.829712 
	C514.889221,512.847351 528.240784,508.946320 537.699219,495.720123 
	C544.864990,485.699829 545.950195,474.190216 544.049255,461.418976 
M167.472488,437.031799 
	C151.069199,426.471161 128.648102,429.538544 117.393738,444.124664 
	C109.116539,454.852264 107.414215,467.291351 109.822990,480.191772 
	C112.615936,495.149536 120.998169,505.781036 136.275604,509.484253 
	C151.370041,513.143066 165.006485,509.998077 175.002594,497.587402 
	C188.449768,480.891968 186.350006,450.291168 167.472488,437.031799 
M51.016872,509.910889 
	C67.944794,509.910889 84.872711,509.910889 101.976913,509.910889 
	C101.976913,504.026764 101.976913,498.801086 101.976913,493.580475 
	C97.100174,492.175354 94.409760,493.874634 94.313431,498.606506 
	C94.241745,502.127686 92.522408,502.734283 89.578987,502.574829 
	C86.590225,502.412903 83.585693,502.543060 80.588066,502.543549 
	C75.686737,502.544342 70.785416,502.543762 65.758476,502.543762 
	C65.758476,481.945435 65.824509,462.304138 65.689957,442.664246 
	C65.668861,439.584869 66.636002,438.549927 69.633980,438.580048 
	C74.285866,438.626770 75.122314,435.939209 74.044762,432.035278 
	C65.406601,432.035278 57.015076,432.035278 48.594200,432.035278 
	C46.908199,439.928802 53.579689,437.810760 57.119228,439.303833 
	C57.215366,440.836700 57.367455,442.143158 57.368660,443.449707 
	C57.385078,461.269043 57.299477,479.089050 57.443207,496.907257 
	C57.475697,500.935333 57.128288,503.745300 51.975254,503.285309 
	C50.878693,503.187378 49.024467,504.847382 48.600777,506.071747 
	C48.262283,507.049988 49.566914,508.596863 51.016872,509.910889 
M426.654938,459.500214 
	C426.654938,452.724945 426.654938,445.949677 426.654938,439.237579 
	C431.041687,438.101837 436.968933,439.535034 435.169983,432.108643 
	C426.552551,432.108643 418.020264,432.108643 409.498901,432.108643 
	C408.713013,436.535095 410.532013,438.656189 414.481842,438.552429 
	C417.927063,438.461884 418.614471,440.050598 418.597839,443.103912 
	C418.497040,461.590637 418.495056,480.078400 418.586792,498.565186 
	C418.601929,501.614319 417.939240,503.214325 414.464233,503.089996 
	C410.132935,502.934937 408.637390,505.293427 409.649841,509.485779 
	C427.569550,509.485779 445.263489,509.485779 463.100098,509.485779 
	C463.100098,503.956299 463.100098,498.853333 463.100098,493.803253 
	C457.245636,492.658112 456.402100,493.318024 455.415344,498.497101 
	C455.140045,499.941925 453.856598,502.318542 452.970306,502.348663 
	C444.386658,502.640991 435.789062,502.524200 426.655304,502.524200 
	C426.655304,488.059784 426.655304,474.279999 426.654938,459.500214 
M398.161530,585.336792 
	C403.482788,585.235596 408.837952,585.479309 414.118011,584.959656 
	C424.313629,583.956116 430.648407,577.764221 431.486908,567.635254 
	C432.047729,560.860474 432.121796,553.965515 431.556030,547.195984 
	C430.688660,536.817139 424.682800,530.911987 414.410004,529.673340 
	C409.968292,529.137817 405.431091,529.418152 400.978424,528.942566 
	C397.138092,528.532410 396.172302,529.969238 396.214264,533.653809 
	C396.396057,549.629700 396.279968,565.608826 396.349884,581.586426 
	C396.355194,582.798645 396.967102,584.008301 398.161530,585.336792 
M450.250702,582.285522 
	C459.757996,588.339111 471.568298,586.645630 477.465179,578.383301 
	C482.456512,571.389771 482.785614,543.840332 477.962494,536.754639 
	C473.668030,530.445618 465.599396,527.231201 457.797516,528.948608 
	C449.895325,530.688049 444.382904,535.370972 443.571075,543.584778 
	C442.773956,551.649719 443.044067,559.829529 443.028625,567.959229 
	C443.017944,573.584167 445.271912,578.278870 450.250702,582.285522 
M517.522339,577.115906 
	C518.148865,578.475647 519.015564,579.777771 519.357849,581.205627 
	C520.486267,585.913208 523.481567,585.891113 527.656860,584.722107 
	C525.085938,578.570374 522.786072,572.719849 520.194092,567.001770 
	C518.746338,563.807922 518.558899,561.755005 521.759644,559.044861 
	C527.172241,554.461914 528.170410,547.984741 526.357056,541.221191 
	C524.570862,534.558716 519.969360,530.712830 513.282654,529.854919 
	C508.027649,529.180603 502.663269,529.407715 497.369629,528.967712 
	C493.801392,528.671143 492.809631,530.044495 492.839142,533.503113 
	C492.977081,549.648865 492.872009,565.796631 492.893707,581.943604 
	C492.895142,583.031921 493.224915,584.119812 493.454773,585.532349 
	C495.483215,585.407776 497.186890,585.303223 499.359741,585.169800 
	C499.359741,577.802917 499.359741,571.043274 499.359741,564.381104 
	C511.410858,562.646667 511.413269,562.645630 515.751526,572.700134 
	C516.278687,573.921875 516.762939,575.162231 517.522339,577.115906 
M115.516464,585.342773 
	C119.168777,585.161865 122.859596,585.253601 126.465469,584.744019 
	C134.249649,583.644043 140.821075,578.037598 141.561798,570.271240 
	C142.391693,561.570007 142.369415,552.654724 141.472946,543.960999 
	C140.662674,536.103271 134.215134,530.804260 126.172768,529.852966 
	C121.399040,529.288269 116.543930,529.439209 111.754486,528.970947 
	C107.980583,528.601929 106.892097,530.009155 106.933952,533.721985 
	C107.114052,549.695740 107.015404,565.672607 107.046059,581.648315 
	C107.048187,582.756165 107.276665,583.863586 107.441322,585.343750 
	C109.979897,585.343750 112.279182,585.343750 115.516464,585.342773 
M379.913513,577.785278 
	C382.391388,586.309448 382.554321,586.437256 388.765533,584.305420 
	C382.931458,567.203064 377.149506,550.079102 371.172729,533.023438 
	C370.622437,531.453064 368.829956,530.317993 367.614227,528.980835 
	C366.194336,530.289978 364.055969,531.338745 363.471710,532.950806 
	C359.792023,543.103027 356.469604,553.384460 353.004944,563.614929 
	C350.631836,570.622314 348.219543,577.616394 345.642273,585.149902 
	C348.984009,584.971558 351.771942,586.892029 353.304718,582.693970 
	C357.418854,571.426208 357.549103,571.473755 369.633392,571.445801 
	C370.298645,571.444275 370.980591,571.538757 371.626434,571.426086 
	C376.159668,570.635315 379.019562,572.225769 379.913513,577.785278 
M218.109497,585.344360 
	C219.151764,584.049255 220.645432,582.912170 221.163391,581.433411 
	C224.658936,571.453369 224.592056,571.429932 234.977890,571.479431 
	C235.311127,571.481018 235.644562,571.472900 235.977570,571.481873 
	C247.576553,571.794556 244.742767,569.647522 248.210938,580.704102 
	C249.665009,585.339722 251.808167,586.407654 256.264984,584.649292 
	C255.868271,583.334290 255.572464,582.241516 255.210602,581.171021 
	C249.825485,565.241272 244.512817,549.285767 238.925446,533.427185 
	C238.306641,531.670776 236.107895,530.471130 234.641922,529.013245 
	C233.344803,530.472900 231.455231,531.720764 230.845581,533.426147 
	C226.476700,545.647339 222.351395,557.955933 218.185181,570.249084 
	C216.554825,575.059753 215.018097,579.902161 213.250595,585.305237 
	C215.141052,585.305237 216.264679,585.305237 218.109497,585.344360 
M187.043320,534.972778 
	C192.028610,535.664001 197.013916,536.355225 202.626129,537.133362 
	C202.985840,536.506287 203.779099,535.123291 204.528320,533.817139 
	C197.442947,527.409119 184.760071,526.855835 177.987198,532.397034 
	C172.472504,536.908875 170.892654,544.673218 175.329117,550.194641 
	C177.888474,553.379822 181.847610,555.624390 185.521194,557.675293 
	C188.818054,559.515930 192.733231,560.225891 196.107483,561.957214 
	C200.015137,563.962219 201.928452,567.512756 200.974854,571.931763 
	C200.049698,576.219116 197.254562,579.324829 192.737930,579.294067 
	C188.529037,579.265320 183.893265,579.043701 180.236282,577.273315 
	C175.968063,575.207092 174.616989,576.471741 173.414658,580.022461 
	C178.911606,585.078247 186.692734,586.974365 194.897644,585.355957 
	C201.444321,584.064575 206.416626,579.096680 207.493042,572.771851 
	C208.595535,566.293762 205.866913,560.078857 199.770065,556.890320 
	C195.385666,554.597351 190.566254,553.143311 185.966187,551.253479 
	C182.148407,549.685059 179.421219,547.157043 179.551407,542.690002 
	C179.675888,538.418518 182.286743,536.125000 187.043320,534.972778 
M307.703125,553.072266 
	C310.749420,562.567383 313.868439,572.040100 316.793121,581.572571 
	C317.567078,584.095215 318.603729,586.227905 321.458069,585.208435 
	C323.076965,584.630188 324.887726,582.966675 325.464905,581.375671 
	C327.957031,574.506714 330.028168,567.484863 332.247375,560.517029 
	C335.508331,550.278381 338.764954,540.038269 342.054565,529.700989 
	C337.479370,528.133179 335.296417,529.127380 334.039032,533.644592 
	C330.651886,545.813110 326.771362,557.844666 323.042908,569.917114 
	C322.656555,571.168091 321.976379,572.328247 320.845978,574.827332 
	C316.305634,560.078430 312.035461,546.836365 308.219513,533.464722 
	C306.910339,528.877319 304.708191,528.132751 300.835938,529.639404 
	C300.781952,530.262390 300.649750,530.621704 300.740509,530.911011 
	C302.978973,538.047791 305.240997,545.177185 307.703125,553.072266 
M94.027847,561.528625 
	C92.576157,559.772888 91.124474,558.017090 89.672783,556.261353 
	C97.047058,546.909302 96.877487,537.885071 89.213753,531.834412 
	C82.753754,526.734131 70.306427,527.827515 65.691154,534.129150 
	C66.672722,535.294189 67.695839,536.508484 68.640106,537.629211 
	C78.560028,533.109680 85.848412,534.220093 87.946602,540.662842 
	C88.659966,542.853333 88.585457,545.742920 87.776253,547.902954 
	C85.435135,554.152039 78.959541,552.458801 74.253174,553.910400 
	C74.253174,555.832581 74.253174,557.412659 74.253174,559.078979 
	C76.827606,559.372498 79.153023,559.476746 81.408958,559.928223 
	C86.137321,560.874573 89.102501,563.546814 89.534447,568.634766 
	C90.302010,577.676025 81.021828,582.914429 71.780197,578.147034 
	C67.888481,576.139465 66.137718,576.822632 64.811195,580.524536 
	C70.547394,586.433716 81.735481,587.665222 88.744469,583.233459 
	C95.814102,578.763367 97.882538,571.081299 94.027847,561.528625 
M270.361420,561.499878 
	C270.361420,550.865662 270.361420,540.231445 270.361420,529.046387 
	C267.956055,529.171204 266.110657,529.266968 264.195160,529.366394 
	C264.195160,548.257751 264.195160,566.530090 264.195160,585.028259 
	C274.027100,585.028259 283.606049,585.028259 293.647736,585.028259 
	C293.542084,583.001892 293.453674,581.306030 293.336426,579.057190 
	C285.363068,579.057190 277.960449,579.057190 270.361816,579.057190 
	C270.361816,573.147278 270.361816,567.823608 270.361420,561.499878 
z"/>
<path fill="#010101" opacity="1.000000" stroke="none" 
	d="
M591.000000,150.533020 
	C589.523987,150.864899 588.048035,150.611557 586.572021,150.611420 
	C392.339325,150.593948 198.106613,150.595001 3.873907,150.597382 
	C3.207991,150.597382 2.542076,150.629501 1.438080,150.823303 
	C1.000000,101.024399 1.000000,51.048798 1.000000,1.036599 
	C197.546295,1.036599 394.092621,1.036599 591.000000,1.036599 
	C591.000000,50.688095 591.000000,100.377068 591.000000,150.533020 
z"/>
<path fill="#010101" opacity="1.000000" stroke="none" 
	d="
M591.000000,741.000000 
	C591.000000,790.642212 591.000000,840.284363 591.000000,889.963257 
	C394.454712,889.963257 197.909409,889.963257 1.000000,889.963257 
	C1.000000,840.646362 1.000000,791.291870 1.454340,741.556641 
	C197.112259,741.182983 392.315826,741.190430 587.519409,741.188904 
	C588.679626,741.188904 589.839783,741.065674 591.000000,741.000000 
z"/>
<path fill="#F0F0F0" opacity="1.000000" stroke="none" 
	d="
M591.000000,740.625000 
	C589.839783,741.065674 588.679626,741.188904 587.519409,741.188904 
	C392.315826,741.190430 197.112259,741.182983 1.454340,741.088013 
	C1.000000,740.250000 1.000000,739.500000 1.000000,738.375000 
	C197.359177,738.000000 393.718353,738.000000 590.538757,738.000000 
	C591.000000,738.750000 591.000000,739.500000 591.000000,740.625000 
z"/>
<path fill="#161514" opacity="1.000000" stroke="none" 
	d="
M207.922638,509.903809 
	C201.977951,509.903503 196.521866,509.903503 190.928314,509.903503 
	C189.868317,505.342316 191.190872,502.961212 195.657913,503.113678 
	C198.825455,503.221802 199.556107,501.727631 199.541107,498.853790 
	C199.443771,480.197968 199.431152,461.541290 199.510803,442.885406 
	C199.522797,440.078705 198.992905,438.405182 195.747208,438.549774 
	C191.620087,438.733612 190.031281,436.621246 190.919189,431.995972 
	C192.570007,431.908447 194.310684,431.700745 196.045288,431.743011 
	C206.848145,432.006165 217.732605,431.600067 228.428955,432.823669 
	C239.818481,434.126617 245.562653,440.524445 246.443970,450.292664 
	C247.429214,461.213043 242.033020,469.503845 231.400833,473.413116 
	C230.339813,473.803223 229.287918,474.218170 227.567963,474.875153 
	C228.703613,476.546021 229.593979,478.031464 230.653381,479.384613 
	C235.474075,485.541626 240.314621,491.683624 245.206253,497.784302 
	C247.336624,500.441254 249.016876,503.456879 253.336914,503.589355 
	C254.565369,503.627075 255.695587,506.868561 257.217834,509.164093 
	C249.403091,510.715363 244.353912,510.040314 240.169754,504.010437 
	C234.112091,495.280701 227.080109,487.225555 220.433533,478.906799 
	C218.296707,476.232391 211.879349,474.469208 209.247070,476.139282 
	C208.333267,476.719055 207.870056,478.589020 207.840485,479.884247 
	C207.696091,486.210724 207.876160,492.544922 207.714615,498.870544 
	C207.640686,501.765472 208.396301,503.243164 211.588089,503.074554 
	C215.695541,502.857544 217.313385,505.026367 216.532974,509.904144 
	C213.896820,509.904144 211.154022,509.904144 207.922638,509.903809 
M213.589340,469.010010 
	C219.414566,468.032288 225.577484,467.929993 230.976562,465.847443 
	C237.231873,463.434662 239.040878,457.505341 238.289673,450.924561 
	C237.591934,444.812042 233.894516,440.993774 228.243011,440.036957 
	C221.657578,438.922028 214.876068,438.965302 207.737076,438.475677 
	C207.737076,447.876801 207.927612,456.165710 207.654205,464.439270 
	C207.523529,468.393860 209.146194,469.489410 213.589340,469.010010 
z"/>
<path fill="#131312" opacity="1.000000" stroke="none" 
	d="
M299.161072,431.918518 
	C317.531616,431.429138 331.832062,442.604126 335.150269,460.599548 
	C338.052460,476.338837 336.113525,491.066772 322.858154,501.902893 
	C319.010437,505.048370 313.939606,508.091614 309.200317,508.495880 
	C293.868530,509.803864 278.430237,509.863129 263.095367,510.401306 
	C261.889648,505.505005 262.974854,502.979248 267.258636,503.116364 
	C270.568359,503.222260 271.547852,501.993530 271.526550,498.767395 
	C271.403320,480.105865 271.397461,461.442841 271.511597,442.781281 
	C271.529694,439.827179 270.751495,438.451721 267.656921,438.540924 
	C263.599030,438.657928 261.843842,436.649384 262.844147,431.721252 
	C272.767792,431.721252 282.853607,431.721252 293.822632,431.905151 
	C296.190948,432.032227 297.675995,431.975372 299.161072,431.918518 
M283.773071,502.799072 
	C289.436401,502.775482 295.103943,502.883057 300.762207,502.701843 
	C313.911102,502.280914 323.793457,494.588470 326.539673,481.800049 
	C327.742218,476.200104 328.138367,470.151794 327.458069,464.480133 
	C326.053009,452.766022 320.494812,443.004303 308.278870,440.390167 
	C299.201447,438.447632 289.588196,439.009064 279.748871,438.427734 
	C279.748871,459.745331 279.707367,479.868805 279.879395,499.990417 
	C279.887451,500.933685 281.798737,501.860657 283.773071,502.799072 
z"/>
<path fill="#202C52" opacity="1.000000" stroke="none" 
	d="
M298.955078,431.588715 
	C297.675995,431.975372 296.190948,432.032227 294.277588,431.972961 
	C292.937683,430.551544 292.287262,428.893158 291.074005,427.995575 
	C279.083008,419.124451 266.938416,410.459747 255.007019,401.510376 
	C253.254150,400.195587 252.388062,397.698578 251.118683,395.122925 
	C251.065720,394.326202 251.005753,394.155060 250.945786,393.983917 
	C250.995544,390.963196 251.045319,387.942505 251.109711,384.056458 
	C251.069199,381.491028 251.014069,379.790894 251.098694,378.114471 
	C251.238434,378.138153 251.492096,378.011566 251.802444,377.944244 
	C253.578232,377.588074 255.043686,377.299225 256.619385,377.302856 
	C256.806183,377.789032 256.882721,377.982819 256.858521,378.564453 
	C256.708405,382.945007 256.849365,386.951935 256.551697,390.926056 
	C256.296051,394.338959 257.684784,396.363922 260.416199,398.288879 
	C269.798370,404.901001 278.986511,411.788147 288.269196,418.542145 
	C289.524872,419.455780 290.898102,420.207855 293.042694,421.552521 
	C293.042694,409.558533 293.086426,398.629669 292.964661,387.702667 
	C292.954224,386.767883 292.051880,385.531250 291.207916,384.970734 
	C287.220428,382.322357 283.109039,379.860565 279.026428,376.999603 
	C278.961487,376.450836 278.911926,376.234650 279.196777,375.889984 
	C281.226501,376.194031 282.919128,376.637726 284.617828,377.056610 
	C287.362732,377.733459 290.111664,378.393951 293.088959,379.079651 
	C293.319031,379.097900 293.779938,379.072235 294.034424,379.370789 
	C295.774628,379.511047 297.466858,379.749420 298.700562,379.107117 
	C300.885468,377.969482 302.796082,376.302765 304.813629,374.846558 
	C314.170685,368.092987 323.525024,361.335663 333.522858,354.115662 
	C320.964233,345.158691 308.993927,336.621307 297.017456,327.668884 
	C296.950195,325.370972 296.889069,323.488129 296.880615,321.461639 
	C296.933319,321.317993 296.881989,321.016296 296.881989,321.016296 
	C300.494415,323.389587 304.106873,325.762878 308.180359,328.501221 
	C309.409882,329.292450 310.178375,329.718658 310.946838,330.144836 
	C320.717834,337.182312 330.488831,344.219788 340.607910,351.745148 
	C341.049469,352.946564 341.142975,353.660126 341.236511,354.373657 
	C341.233490,367.835693 341.161560,381.298309 341.276459,394.759338 
	C341.304779,398.074005 340.206848,400.158234 337.398346,402.134583 
	C325.451508,410.541656 313.707062,419.237305 301.936676,427.892792 
	C300.711517,428.793671 299.804016,430.126495 298.955078,431.588715 
M321.074188,406.632294 
	C325.092987,403.683533 329.161469,400.798859 333.098328,397.744507 
	C334.188507,396.898682 335.630310,395.561646 335.650360,394.427643 
	C335.843018,383.531769 335.765747,372.631134 335.765747,361.525208 
	C334.630371,361.702240 334.069977,361.626434 333.733765,361.865662 
	C322.914825,369.563751 312.075745,377.235504 301.382446,385.105164 
	C300.326569,385.882233 299.736877,387.885803 299.693451,389.342804 
	C299.505310,395.656036 299.598419,401.977692 299.593048,408.296295 
	C299.589478,412.484375 299.592346,416.672424 299.592346,422.094574 
	C307.364014,416.491791 313.921997,411.764008 321.074188,406.632294 
z"/>
<path fill="#131211" opacity="1.000000" stroke="none" 
	d="
M384.654449,466.761902 
	C386.441589,466.778290 387.773651,466.765533 389.102875,466.821381 
	C389.397614,466.833771 389.682190,467.088715 390.207214,467.348755 
	C390.207214,469.305389 390.207214,471.369843 390.207214,473.872925 
	C380.462311,473.872925 371.037872,473.872925 361.159302,473.872925 
	C361.159302,483.489685 361.159302,492.682068 361.159302,502.586273 
	C370.836151,502.586273 380.585785,502.714508 390.318024,502.362488 
	C391.171356,502.331665 392.413086,499.206543 392.609222,497.423431 
	C393.208496,491.976166 393.663971,491.464691 399.894379,492.017761 
	C399.894379,497.709473 399.894379,503.441193 399.894379,509.523865 
	C381.149658,509.523865 362.473236,509.523865 343.718933,509.523865 
	C342.947937,505.270813 344.157684,502.879974 348.444183,503.103912 
	C351.883179,503.283539 352.528229,501.602722 352.509399,498.542816 
	C352.396667,480.226715 352.384308,461.909119 352.513000,443.593262 
	C352.537109,440.160614 351.867523,438.332642 347.936584,438.481964 
	C343.890961,438.635620 343.000916,435.999268 343.560730,432.110840 
	C362.413574,432.110840 381.103851,432.110840 400.005402,432.110840 
	C400.005402,437.970795 400.005402,443.702362 400.005402,449.385376 
	C394.285919,450.446350 394.285919,450.446350 391.833801,439.320984 
	C381.679688,439.320984 371.454254,439.320984 361.020752,439.320984 
	C361.020752,448.514984 361.020752,457.415741 361.020752,466.757446 
	C368.944244,466.757446 376.571289,466.757446 384.654449,466.761902 
z"/>
<path fill="#161514" opacity="1.000000" stroke="none" 
	d="
M544.114319,461.848755 
	C545.950195,474.190216 544.864990,485.699829 537.699219,495.720123 
	C528.240784,508.946320 514.889221,512.847351 499.389587,509.829712 
	C484.450165,506.921143 475.380280,497.416077 471.840942,482.914246 
	C468.596222,469.619324 469.739227,456.609680 478.037384,445.235657 
	C487.114990,432.793304 500.006714,429.144073 514.686951,431.474854 
	C529.280457,433.791870 538.302856,442.801208 542.870911,456.573975 
	C543.392395,458.146271 543.662598,459.801971 544.114319,461.848755 
M508.401306,503.109650 
	C521.752930,502.448883 530.272705,496.573242 534.380310,484.345123 
	C537.779175,474.227081 537.609314,463.938416 533.107300,454.117706 
	C524.573425,435.501892 497.743774,432.484497 485.284546,448.681671 
	C479.108307,456.710846 478.257935,466.085205 479.027313,475.763184 
	C480.351746,492.422852 490.777313,502.420959 508.401306,503.109650 
z"/>
<path fill="#161514" opacity="1.000000" stroke="none" 
	d="
M167.782471,437.213135 
	C186.350006,450.291168 188.449768,480.891968 175.002594,497.587402 
	C165.006485,509.998077 151.370041,513.143066 136.275604,509.484253 
	C120.998169,505.781036 112.615936,495.149536 109.822990,480.191772 
	C107.414215,467.291351 109.116539,454.852264 117.393738,444.124664 
	C128.648102,429.538544 151.069199,426.471161 167.782471,437.213135 
M167.576904,494.025604 
	C176.901047,481.451294 177.357712,467.796967 171.550690,453.919128 
	C166.930588,442.877838 157.584885,438.288940 145.957123,438.356445 
	C134.273529,438.424286 125.573761,443.589691 120.517441,454.349060 
	C116.907928,462.029724 116.658020,470.190735 117.929573,478.309174 
	C119.663063,489.376892 125.087791,498.220215 136.328964,501.590546 
	C147.654541,504.986176 158.397690,503.678040 167.576904,494.025604 
z"/>
<path fill="#1A1917" opacity="1.000000" stroke="none" 
	d="
M50.579552,509.901123 
	C49.566914,508.596863 48.262283,507.049988 48.600777,506.071747 
	C49.024467,504.847382 50.878693,503.187378 51.975254,503.285309 
	C57.128288,503.745300 57.475697,500.935333 57.443207,496.907257 
	C57.299477,479.089050 57.385078,461.269043 57.368660,443.449707 
	C57.367455,442.143158 57.215366,440.836700 57.119228,439.303833 
	C53.579689,437.810760 46.908199,439.928802 48.594200,432.035278 
	C57.015076,432.035278 65.406601,432.035278 74.044762,432.035278 
	C75.122314,435.939209 74.285866,438.626770 69.633980,438.580048 
	C66.636002,438.549927 65.668861,439.584869 65.689957,442.664246 
	C65.824509,462.304138 65.758476,481.945435 65.758476,502.543762 
	C70.785416,502.543762 75.686737,502.544342 80.588066,502.543549 
	C83.585693,502.543060 86.590225,502.412903 89.578987,502.574829 
	C92.522408,502.734283 94.241745,502.127686 94.313431,498.606506 
	C94.409760,493.874634 97.100174,492.175354 101.976913,493.580475 
	C101.976913,498.801086 101.976913,504.026764 101.976913,509.910889 
	C84.872711,509.910889 67.944794,509.910889 50.579552,509.901123 
z"/>
<path fill="#131312" opacity="1.000000" stroke="none" 
	d="
M426.655121,460.000214 
	C426.655304,474.279999 426.655304,488.059784 426.655304,502.524200 
	C435.789062,502.524200 444.386658,502.640991 452.970306,502.348663 
	C453.856598,502.318542 455.140045,499.941925 455.415344,498.497101 
	C456.402100,493.318024 457.245636,492.658112 463.100098,493.803253 
	C463.100098,498.853333 463.100098,503.956299 463.100098,509.485779 
	C445.263489,509.485779 427.569550,509.485779 409.649841,509.485779 
	C408.637390,505.293427 410.132935,502.934937 414.464233,503.089996 
	C417.939240,503.214325 418.601929,501.614319 418.586792,498.565186 
	C418.495056,480.078400 418.497040,461.590637 418.597839,443.103912 
	C418.614471,440.050598 417.927063,438.461884 414.481842,438.552429 
	C410.532013,438.656189 408.713013,436.535095 409.498901,432.108643 
	C418.020264,432.108643 426.552551,432.108643 435.169983,432.108643 
	C436.968933,439.535034 431.041687,438.101837 426.654938,439.237579 
	C426.654938,445.949677 426.654938,452.724945 426.655121,460.000214 
z"/>
<path fill="#1E1D1C" opacity="1.000000" stroke="none" 
	d="
M397.729279,585.277954 
	C396.967102,584.008301 396.355194,582.798645 396.349884,581.586426 
	C396.279968,565.608826 396.396057,549.629700 396.214264,533.653809 
	C396.172302,529.969238 397.138092,528.532410 400.978424,528.942566 
	C405.431091,529.418152 409.968292,529.137817 414.410004,529.673340 
	C424.682800,530.911987 430.688660,536.817139 431.556030,547.195984 
	C432.121796,553.965515 432.047729,560.860474 431.486908,567.635254 
	C430.648407,577.764221 424.313629,583.956116 414.118011,584.959656 
	C408.837952,585.479309 403.482788,585.235596 397.729279,585.277954 
M402.797729,559.499695 
	C402.797729,565.923706 402.797729,572.347717 402.797729,579.279907 
	C405.841797,579.279907 408.299011,579.370605 410.747589,579.263672 
	C419.672394,578.874084 424.212341,574.879944 425.215759,565.993652 
	C425.716675,561.557434 425.616608,557.030518 425.501709,552.551941 
	C425.167023,539.503845 420.471680,535.163574 407.347992,535.090088 
	C403.975464,535.071167 402.579803,535.935242 402.728638,539.552612 
	C402.988098,545.858643 402.799072,552.183167 402.797729,559.499695 
z"/>
<path fill="#415EF0" opacity="1.000000" stroke="none" 
	d="
M296.853699,320.216034 
	C296.853729,320.216034 296.910400,320.615326 296.896179,320.815796 
	C296.881989,321.016296 296.933319,321.317993 296.568542,321.280884 
	C294.501190,322.032959 292.701233,322.664093 291.114655,323.641571 
	C286.690063,326.367432 282.353912,329.236877 277.992004,331.576172 
	C278.004456,319.279022 278.012085,307.455292 278.007843,295.631592 
	C278.006775,292.733124 277.966827,289.834656 277.966858,286.564697 
	C278.299866,284.722687 278.610748,283.252167 279.056335,281.533752 
	C279.475983,280.616119 279.760925,279.946350 280.300018,279.048340 
	C283.443695,275.616058 286.333252,272.412048 289.222809,269.208008 
	C289.222809,269.208008 289.002869,269.016083 289.440796,269.047974 
	C291.589539,267.728424 293.300385,266.376984 295.884644,264.335632 
	C295.884644,267.322723 295.884399,269.101807 295.884705,270.880890 
	C295.887299,285.616272 295.858704,300.351807 295.934814,315.086823 
	C295.943695,316.798096 296.533325,318.506378 296.853699,320.216034 
z"/>
<path fill="#1A1917" opacity="1.000000" stroke="none" 
	d="
M449.943604,582.093750 
	C445.271912,578.278870 443.017944,573.584167 443.028625,567.959229 
	C443.044067,559.829529 442.773956,551.649719 443.571075,543.584778 
	C444.382904,535.370972 449.895325,530.688049 457.797516,528.948608 
	C465.599396,527.231201 473.668030,530.445618 477.962494,536.754639 
	C482.785614,543.840332 482.456512,571.389771 477.465179,578.383301 
	C471.568298,586.645630 459.757996,588.339111 449.943604,582.093750 
M469.211609,577.975098 
	C470.913971,574.876831 473.764862,571.892700 474.086487,568.657166 
	C474.822510,561.252686 474.710388,553.699768 474.219360,546.254883 
	C473.691467,538.251038 469.196045,534.582031 461.452026,534.750916 
	C454.315033,534.906616 449.790649,539.131165 449.414886,546.669373 
	C449.084045,553.306824 449.010284,559.990173 449.380920,566.622070 
	C450.014221,577.953003 457.657562,582.485413 469.211609,577.975098 
z"/>
<path fill="#181717" opacity="1.000000" stroke="none" 
	d="
M517.394714,576.754883 
	C516.762939,575.162231 516.278687,573.921875 515.751526,572.700134 
	C511.413269,562.645630 511.410858,562.646667 499.359741,564.381104 
	C499.359741,571.043274 499.359741,577.802917 499.359741,585.169800 
	C497.186890,585.303223 495.483215,585.407776 493.454773,585.532349 
	C493.224915,584.119812 492.895142,583.031921 492.893707,581.943604 
	C492.872009,565.796631 492.977081,549.648865 492.839142,533.503113 
	C492.809631,530.044495 493.801392,528.671143 497.369629,528.967712 
	C502.663269,529.407715 508.027649,529.180603 513.282654,529.854919 
	C519.969360,530.712830 524.570862,534.558716 526.357056,541.221191 
	C528.170410,547.984741 527.172241,554.461914 521.759644,559.044861 
	C518.558899,561.755005 518.746338,563.807922 520.194092,567.001770 
	C522.786072,572.719849 525.085938,578.570374 527.656860,584.722107 
	C523.481567,585.891113 520.486267,585.913208 519.357849,581.205627 
	C519.015564,579.777771 518.148865,578.475647 517.394714,576.754883 
M499.094635,540.726440 
	C499.094391,543.056152 499.093964,545.385925 499.093872,547.715637 
	C499.093292,558.769226 499.093323,558.769165 510.430939,557.565552 
	C517.086060,556.859070 520.730469,552.884460 520.670959,546.397644 
	C520.609985,539.753845 517.101929,535.978455 510.340363,535.387268 
	C508.188629,535.199158 506.002167,535.348755 503.863281,535.086060 
	C500.179016,534.633545 498.484894,535.985657 499.094635,540.726440 
z"/>
<path fill="#181717" opacity="1.000000" stroke="none" 
	d="
M115.047462,585.343262 
	C112.279182,585.343750 109.979897,585.343750 107.441322,585.343750 
	C107.276665,583.863586 107.048187,582.756165 107.046059,581.648315 
	C107.015404,565.672607 107.114052,549.695740 106.933952,533.721985 
	C106.892097,530.009155 107.980583,528.601929 111.754486,528.970947 
	C116.543930,529.439209 121.399040,529.288269 126.172768,529.852966 
	C134.215134,530.804260 140.662674,536.103271 141.472946,543.960999 
	C142.369415,552.654724 142.391693,561.570007 141.561798,570.271240 
	C140.821075,578.037598 134.249649,583.644043 126.465469,584.744019 
	C122.859596,585.253601 119.168777,585.161865 115.047462,585.343262 
M123.952827,579.072327 
	C132.786087,576.692383 135.453278,573.540039 135.957214,564.405945 
	C136.186127,560.256897 136.156876,556.084717 136.054321,551.927795 
	C135.715607,538.201050 126.929764,532.020203 113.456421,536.052185 
	C113.456421,550.262207 113.456421,564.500427 113.456421,579.185852 
	C116.826912,579.185852 119.947487,579.185852 123.952827,579.072327 
z"/>
<path fill="#1B1A19" opacity="1.000000" stroke="none" 
	d="
M379.810577,577.389404 
	C379.019562,572.225769 376.159668,570.635315 371.626434,571.426086 
	C370.980591,571.538757 370.298645,571.444275 369.633392,571.445801 
	C357.549103,571.473755 357.418854,571.426208 353.304718,582.693970 
	C351.771942,586.892029 348.984009,584.971558 345.642273,585.149902 
	C348.219543,577.616394 350.631836,570.622314 353.004944,563.614929 
	C356.469604,553.384460 359.792023,543.103027 363.471710,532.950806 
	C364.055969,531.338745 366.194336,530.289978 367.614258,528.980835 
	C368.829956,530.317993 370.622437,531.453064 371.172729,533.023438 
	C377.149506,550.079102 382.931458,567.203064 388.765533,584.305420 
	C382.554321,586.437256 382.391388,586.309448 379.810577,577.389404 
M372.417969,565.400452 
	C373.326141,564.507812 375.076996,563.513000 374.983459,562.741821 
	C374.709595,560.482971 373.695007,558.315186 372.982086,556.108093 
	C371.301178,550.904358 369.626862,545.698425 367.949921,540.493408 
	C367.491211,540.538147 367.032501,540.582886 366.573792,540.627625 
	C364.028351,548.659119 361.482910,556.690613 358.731262,565.372681 
	C363.546570,565.372681 367.494507,565.372681 372.417969,565.400452 
z"/>
<path fill="#1B1A19" opacity="1.000000" stroke="none" 
	d="
M217.748901,585.324829 
	C216.264679,585.305237 215.141052,585.305237 213.250595,585.305237 
	C215.018097,579.902161 216.554825,575.059753 218.185181,570.249084 
	C222.351395,557.955933 226.476700,545.647339 230.845581,533.426147 
	C231.455231,531.720764 233.344803,530.472900 234.641907,529.013245 
	C236.107895,530.471130 238.306641,531.670776 238.925446,533.427185 
	C244.512817,549.285767 249.825485,565.241272 255.210602,581.171021 
	C255.572464,582.241516 255.868271,583.334290 256.264984,584.649292 
	C251.808167,586.407654 249.665009,585.339722 248.210938,580.704102 
	C244.742767,569.647522 247.576553,571.794556 235.977570,571.481873 
	C235.644562,571.472900 235.311127,571.481018 234.977890,571.479431 
	C224.592056,571.429932 224.658936,571.453369 221.163391,581.433411 
	C220.645432,582.912170 219.151764,584.049255 217.748901,585.324829 
M239.288803,565.402527 
	C240.503113,565.265625 241.717438,565.128662 243.412262,564.937561 
	C240.627502,556.294128 238.022430,548.208374 235.417358,540.122681 
	C235.010712,540.150635 234.604050,540.178589 234.197403,540.206543 
	C231.627869,548.342590 229.058350,556.478638 226.239975,565.402588 
	C230.789215,565.402588 234.565735,565.402588 239.288803,565.402527 
z"/>
<path fill="#1E1D1C" opacity="1.000000" stroke="none" 
	d="
M186.624847,535.020630 
	C182.286743,536.125000 179.675888,538.418518 179.551407,542.690002 
	C179.421219,547.157043 182.148407,549.685059 185.966187,551.253479 
	C190.566254,553.143311 195.385666,554.597351 199.770065,556.890320 
	C205.866913,560.078857 208.595535,566.293762 207.493042,572.771851 
	C206.416626,579.096680 201.444321,584.064575 194.897644,585.355957 
	C186.692734,586.974365 178.911606,585.078247 173.414658,580.022461 
	C174.616989,576.471741 175.968063,575.207092 180.236282,577.273315 
	C183.893265,579.043701 188.529037,579.265320 192.737930,579.294067 
	C197.254562,579.324829 200.049698,576.219116 200.974854,571.931763 
	C201.928452,567.512756 200.015137,563.962219 196.107483,561.957214 
	C192.733231,560.225891 188.818054,559.515930 185.521194,557.675293 
	C181.847610,555.624390 177.888474,553.379822 175.329117,550.194641 
	C170.892654,544.673218 172.472504,536.908875 177.987198,532.397034 
	C184.760071,526.855835 197.442947,527.409119 204.528320,533.817139 
	C203.779099,535.123291 202.985840,536.506287 202.626129,537.133362 
	C197.013916,536.355225 192.028610,535.664001 186.624847,535.020630 
z"/>
<path fill="#100F0F" opacity="1.000000" stroke="none" 
	d="
M310.890106,310.065735 
	C310.740906,309.566437 310.591675,309.067139 310.997681,308.226990 
	C312.693054,307.672363 313.833221,307.458588 314.973389,307.244843 
	C315.375671,307.334045 315.777924,307.423248 316.624847,307.899902 
	C317.833893,308.396027 318.598328,308.504700 319.362732,308.613373 
	C320.281525,308.844269 321.200348,309.075165 322.597961,309.732452 
	C323.872925,310.229462 324.669098,310.300079 325.465240,310.370697 
	C325.808990,310.447876 326.152771,310.525055 326.953766,311.012573 
	C335.098602,314.343628 335.099701,314.344360 339.190948,308.138550 
	C339.457092,307.734924 339.687927,307.307983 339.935211,306.891907 
	C340.078888,306.770172 340.222595,306.648468 340.640503,306.819824 
	C341.616669,307.736816 342.318604,308.360657 343.411926,309.039429 
	C347.093933,309.621643 350.724182,311.857605 353.411682,307.418549 
	C355.624146,307.187683 357.422455,306.805206 360.061401,306.243927 
	C360.061401,309.944183 359.699493,313.520691 360.214447,316.966064 
	C360.471069,318.683105 362.333221,320.160156 363.469147,321.745758 
	C370.663422,323.716400 377.890961,325.578491 385.018860,327.765442 
	C386.194977,328.126282 386.934265,329.910797 387.875427,331.037415 
	C386.441864,331.447174 384.847870,332.482635 383.601227,332.163116 
	C376.541199,330.353394 369.564362,328.219208 364.135468,326.650848 
	C360.186859,330.130432 357.225250,332.740265 353.652740,335.612366 
	C352.416199,334.810364 351.315155,333.774139 351.250397,332.676758 
	C351.017883,328.738159 351.196411,324.777008 351.075317,320.828827 
	C351.047760,319.929779 350.442352,319.048431 350.102905,318.158936 
	C349.683472,318.229462 349.264038,318.299957 348.844604,318.370483 
	C348.844604,323.093872 349.071167,327.834412 348.715515,332.530884 
	C348.598999,334.069763 346.970428,335.494171 346.033356,336.970917 
	C345.600281,336.859131 345.167175,336.747345 344.289307,336.159485 
	C338.390350,334.837952 337.582764,331.264496 337.771332,326.443024 
	C337.878906,323.692596 336.529449,320.885193 335.836029,318.103424 
	C332.846283,317.258881 329.856567,316.414307 326.359283,315.116516 
	C323.248016,314.046997 320.644257,313.430786 318.040527,312.814545 
	C317.605530,312.766113 317.170563,312.717682 316.322510,312.212280 
	C314.236298,311.192078 312.563202,310.628906 310.890106,310.065735 
z"/>
<path fill="#D2E7F4" opacity="1.000000" stroke="none" 
	d="
M288.801270,269.140869 
	C286.333252,272.412048 283.443695,275.616058 279.951569,278.955139 
	C278.869080,279.062073 278.389191,279.033966 277.949097,278.538086 
	C277.988922,264.851227 277.988922,251.632156 277.988922,238.017532 
	C271.431732,241.447083 167.716797,346.305237 167.042480,349.944458 
	C180.380432,349.944458 193.687195,349.944458 207.028946,350.297852 
	C207.126556,351.120331 207.189163,351.589417 207.022858,352.314606 
	C198.936920,360.165161 191.079880,367.759583 183.222839,375.354034 
	C183.938232,373.619232 184.223999,371.457916 185.446457,370.226532 
	C189.765167,365.876465 194.440994,361.883270 198.896744,357.665344 
	C200.001358,356.619690 200.787033,355.237122 202.523270,352.950714 
	C197.737198,352.950714 194.240173,352.948090 190.743134,352.951263 
	C183.743347,352.957642 176.729660,353.212311 169.752808,352.816437 
	C167.821350,352.706818 164.990829,351.028900 164.410751,349.411407 
	C163.830185,347.792542 165.007828,344.851715 166.371033,343.370178 
	C169.269760,340.219727 172.956512,337.810242 176.019547,334.791840 
	C182.876724,328.034637 189.584259,321.124054 196.287491,314.212646 
	C201.785294,308.544098 207.045593,302.638702 212.668304,297.099335 
	C220.870743,289.018433 229.319778,281.188232 237.633057,273.219208 
	C243.688370,267.414703 249.873810,261.730377 255.667404,255.673172 
	C260.646149,250.467880 264.995758,244.662582 269.945404,239.426865 
	C271.886658,237.373428 274.703918,236.148132 277.397308,234.363403 
	C283.155823,241.390427 280.553864,248.784210 280.552429,255.798965 
	C280.551270,261.366425 280.552185,266.933868 280.552185,272.662109 
	C283.319702,271.393372 285.849701,270.233551 288.801270,269.140869 
z"/>
<path fill="#1B1A19" opacity="1.000000" stroke="none" 
	d="
M307.600983,552.690063 
	C305.240997,545.177185 302.978973,538.047791 300.740509,530.911011 
	C300.649750,530.621704 300.781952,530.262390 300.835938,529.639404 
	C304.708191,528.132751 306.910339,528.877319 308.219513,533.464722 
	C312.035461,546.836365 316.305634,560.078430 320.845978,574.827332 
	C321.976379,572.328247 322.656555,571.168091 323.042908,569.917114 
	C326.771362,557.844666 330.651886,545.813110 334.039032,533.644592 
	C335.296417,529.127380 337.479370,528.133179 342.054565,529.700989 
	C338.764954,540.038269 335.508331,550.278381 332.247375,560.517029 
	C330.028168,567.484863 327.957031,574.506714 325.464905,581.375671 
	C324.887726,582.966675 323.076965,584.630188 321.458069,585.208435 
	C318.603729,586.227905 317.567078,584.095215 316.793121,581.572571 
	C313.868439,572.040100 310.749420,562.567383 307.600983,552.690063 
z"/>
<path fill="#1B1A19" opacity="1.000000" stroke="none" 
	d="
M94.221626,561.850464 
	C97.882538,571.081299 95.814102,578.763367 88.744469,583.233459 
	C81.735481,587.665222 70.547394,586.433716 64.811195,580.524536 
	C66.137718,576.822632 67.888481,576.139465 71.780197,578.147034 
	C81.021828,582.914429 90.302010,577.676025 89.534447,568.634766 
	C89.102501,563.546814 86.137321,560.874573 81.408958,559.928223 
	C79.153023,559.476746 76.827606,559.372498 74.253174,559.078979 
	C74.253174,557.412659 74.253174,555.832581 74.253174,553.910400 
	C78.959541,552.458801 85.435135,554.152039 87.776253,547.902954 
	C88.585457,545.742920 88.659966,542.853333 87.946602,540.662842 
	C85.848412,534.220093 78.560028,533.109680 68.640106,537.629211 
	C67.695839,536.508484 66.672722,535.294189 65.691154,534.129150 
	C70.306427,527.827515 82.753754,526.734131 89.213753,531.834412 
	C96.877487,537.885071 97.047058,546.909302 89.672783,556.261353 
	C91.124474,558.017090 92.576157,559.772888 94.221626,561.850464 
z"/>
<path fill="#131312" opacity="1.000000" stroke="none" 
	d="
M270.361633,561.999939 
	C270.361816,567.823608 270.361816,573.147278 270.361816,579.057190 
	C277.960449,579.057190 285.363068,579.057190 293.336426,579.057190 
	C293.453674,581.306030 293.542084,583.001892 293.647736,585.028259 
	C283.606049,585.028259 274.027100,585.028259 264.195160,585.028259 
	C264.195160,566.530090 264.195160,548.257751 264.195160,529.366394 
	C266.110657,529.266968 267.956055,529.171204 270.361420,529.046387 
	C270.361420,540.231445 270.361420,550.865662 270.361633,561.999939 
z"/>
<path fill="#576BD5" opacity="1.000000" stroke="none" 
	d="
M183.154282,375.540344 
	C191.079880,367.759583 198.936920,360.165161 207.298126,352.295471 
	C208.170990,351.978363 208.539642,351.936584 208.966949,351.924988 
	C209.025589,351.955231 209.140732,352.019684 209.090317,352.382141 
	C208.219879,354.129211 207.627579,355.733398 206.540619,356.860596 
	C201.708328,361.871674 196.719147,366.731140 191.826523,371.684814 
	C191.007309,372.514313 190.384628,373.537903 189.156693,375.145142 
	C196.602386,375.145142 203.073502,375.157349 209.544571,375.142517 
	C221.603561,375.114899 233.662674,375.027222 245.721420,375.063324 
	C249.067078,375.073334 249.419922,373.148712 249.317032,370.516846 
	C249.141998,366.040131 248.964935,361.553497 249.101868,357.080627 
	C249.143738,355.712402 250.211014,354.375549 250.878632,353.486786 
	C251.129715,361.970001 251.310898,369.990784 251.492096,378.011566 
	C251.492096,378.011566 251.238434,378.138153 250.632721,378.069122 
	C229.269882,377.984222 208.512482,378.012085 187.756241,377.869080 
	C186.105576,377.857697 184.463058,376.663330 182.816772,376.018738 
	C182.816772,376.018738 183.085724,375.726685 183.154282,375.540344 
z"/>
<path fill="#333230" opacity="1.000000" stroke="none" 
	d="
M363.192566,321.407715 
	C362.333221,320.160156 360.471069,318.683105 360.214447,316.966064 
	C359.699493,313.520691 360.061401,309.944183 360.061401,306.243927 
	C357.422455,306.805206 355.624146,307.187683 353.257507,307.254639 
	C350.797577,306.351318 348.905884,305.763519 346.995392,304.792786 
	C346.965057,303.898865 346.953552,303.387909 346.942047,302.876923 
	C349.592987,302.241211 352.243927,301.605499 355.600128,300.894165 
	C358.069519,300.674164 359.833679,300.529785 361.597809,300.385406 
	C363.482819,301.394897 365.367798,302.404419 367.718811,303.890991 
	C369.840027,304.143402 371.495300,303.918732 373.150543,303.694061 
	C375.619965,302.519012 378.089386,301.343964 380.715576,300.094330 
	C382.607666,306.516144 376.871246,307.217377 373.629761,307.931824 
	C370.079590,308.714355 366.004639,307.116119 361.033051,306.391357 
	C361.630005,311.044952 362.273010,316.057312 363.192566,321.407715 
z"/>
<path fill="#D2E7F4" opacity="1.000000" stroke="none" 
	d="
M182.477646,376.087280 
	C184.463058,376.663330 186.105576,377.857697 187.756241,377.869080 
	C208.512482,378.012085 229.269882,377.984222 250.492966,378.045441 
	C251.014069,379.790894 251.069199,381.491028 251.028687,383.610657 
	C248.950455,378.916626 244.530640,380.004547 240.577545,379.999847 
	C222.412354,379.978241 204.246964,380.020660 186.082092,379.938049 
	C183.857498,379.927948 180.063660,380.923706 182.477646,376.087280 
z"/>
<path fill="#D2E7F4" opacity="1.000000" stroke="none" 
	d="
M296.904236,319.733337 
	C296.533325,318.506378 295.943695,316.798096 295.934814,315.086823 
	C295.858704,300.351807 295.887299,285.616272 295.884705,270.880890 
	C295.884399,269.101807 295.884644,267.322723 295.884644,264.335632 
	C293.300385,266.376984 291.589539,267.728424 289.544617,269.150757 
	C290.487701,267.328613 291.416229,264.980133 293.135193,263.664398 
	C295.040863,262.205750 296.989044,262.879486 296.996704,265.859283 
	C297.013092,272.237885 297.021088,278.616516 297.014069,284.995148 
	C297.001495,296.413666 296.975281,307.832153 296.904236,319.733337 
z"/>
<path fill="#444550" opacity="1.000000" stroke="none" 
	d="
M348.947052,349.024017 
	C344.545654,347.113464 345.823517,343.230621 346.390869,339.444580 
	C349.232635,339.069794 351.433289,339.067596 353.633911,339.065430 
	C353.600555,341.506378 353.567200,343.947357 353.224304,347.080627 
	C351.592194,348.189941 350.269623,348.606964 348.947052,349.024017 
z"/>
<path fill="#61605F" opacity="1.000000" stroke="none" 
	d="
M353.653625,338.666412 
	C351.433289,339.067596 349.232635,339.069794 346.618896,339.059021 
	C346.161774,338.585480 346.117767,338.124878 346.053558,337.317596 
	C346.970428,335.494171 348.598999,334.069763 348.715515,332.530884 
	C349.071167,327.834412 348.844604,323.093872 348.844604,318.370483 
	C349.264038,318.299957 349.683472,318.229462 350.102905,318.158936 
	C350.442352,319.048431 351.047760,319.929779 351.075317,320.828827 
	C351.196411,324.777008 351.017883,328.738159 351.250397,332.676758 
	C351.315155,333.774139 352.416199,334.810364 353.446228,335.894836 
	C353.791504,336.699127 353.732452,337.483276 353.653625,338.666412 
z"/>
<path fill="#444550" opacity="1.000000" stroke="none" 
	d="
M341.587036,354.145691 
	C341.142975,353.660126 341.049469,352.946564 340.951782,351.871826 
	C343.508179,351.261688 346.068817,351.012726 349.391632,350.937256 
	C352.891693,350.576172 356.469696,352.721924 358.090210,348.622955 
	C361.381561,350.463867 360.126862,352.046051 357.491150,352.529449 
	C354.448303,353.087494 351.249054,352.734497 348.131165,352.961823 
	C346.054413,353.113281 344.001251,353.587830 341.587036,354.145691 
z"/>
<path fill="#444550" opacity="1.000000" stroke="none" 
	d="
M335.975281,318.550171 
	C336.529449,320.885193 337.878906,323.692596 337.771332,326.443024 
	C337.582764,331.264496 338.390350,334.837952 344.004791,335.977905 
	C336.837128,335.671295 336.678009,335.458282 336.583832,328.399200 
	C336.541992,325.263580 336.277771,322.130890 335.975281,318.550171 
z"/>
<path fill="#61605F" opacity="1.000000" stroke="none" 
	d="
M339.562622,306.854309 
	C339.687927,307.307983 339.457092,307.734924 339.190948,308.138550 
	C335.099701,314.344360 335.098602,314.343628 327.195038,311.122192 
	C329.815582,311.261047 332.652100,311.700592 335.150543,312.087769 
	C336.590881,310.208344 337.890472,308.512512 339.562622,306.854309 
z"/>
<path fill="#61605F" opacity="1.000000" stroke="none" 
	d="
M357.828522,348.376038 
	C356.469696,352.721924 352.891693,350.576172 349.822144,351.015656 
	C349.404236,350.603241 349.317993,350.285919 349.089417,349.496277 
	C350.269623,348.606964 351.592194,348.189941 353.093231,347.526123 
	C354.703400,347.562592 356.135132,347.845856 357.828522,348.376038 
z"/>
<path fill="#61605F" opacity="1.000000" stroke="none" 
	d="
M346.594849,302.858154 
	C346.953552,303.387909 346.965057,303.898865 346.828796,305.069489 
	C345.460907,306.814270 344.240723,307.899384 343.020569,308.984528 
	C342.318604,308.360657 341.616669,307.736816 340.901184,306.710938 
	C342.674347,305.152435 344.460968,303.995941 346.594849,302.858154 
z"/>
<path fill="#444550" opacity="1.000000" stroke="none" 
	d="
M318.257446,313.097656 
	C320.644257,313.430786 323.248016,314.046997 326.009613,314.940918 
	C323.603119,314.605988 321.038757,313.993347 318.257446,313.097656 
z"/>
<path fill="#61605F" opacity="1.000000" stroke="none" 
	d="
M372.715088,303.597839 
	C371.495300,303.918732 369.840027,304.143402 368.011200,304.112244 
	C369.318298,303.738190 370.798950,303.619904 372.715088,303.597839 
z"/>
<path fill="#61605F" opacity="1.000000" stroke="none" 
	d="
M361.368652,300.135864 
	C359.833679,300.529785 358.069519,300.674164 355.929077,300.744507 
	C357.415009,300.409119 359.277222,300.147736 361.368652,300.135864 
z"/>
<path fill="#444550" opacity="1.000000" stroke="none" 
	d="
M310.924744,310.414520 
	C312.563202,310.628906 314.236298,311.192078 316.032013,312.055054 
	C314.422852,311.824310 312.691132,311.293823 310.924744,310.414520 
z"/>
<path fill="#61605F" opacity="1.000000" stroke="none" 
	d="
M314.770782,306.982178 
	C313.833221,307.458588 312.693054,307.672363 311.191223,307.874695 
	C312.075775,307.481995 313.321991,307.100739 314.770782,306.982178 
z"/>
<path fill="#D2E7F4" opacity="1.000000" stroke="none" 
	d="
M310.897949,329.766418 
	C310.178375,329.718658 309.409882,329.292450 308.503571,328.553680 
	C309.193481,328.623413 310.021271,329.005707 310.897949,329.766418 
z"/>
<path fill="#61605F" opacity="1.000000" stroke="none" 
	d="
M319.216492,308.336426 
	C318.598328,308.504700 317.833893,308.396027 316.909821,308.020874 
	C317.523529,307.856079 318.296906,307.957794 319.216492,308.336426 
z"/>
<path fill="#61605F" opacity="1.000000" stroke="none" 
	d="
M325.282349,310.122314 
	C324.669098,310.300079 323.872925,310.229462 322.926025,309.871155 
	C323.549988,309.680298 324.324707,309.777130 325.282349,310.122314 
z"/>
<path fill="#D2E7F4" opacity="1.000000" stroke="none" 
	d="
M250.790314,394.079590 
	C251.005753,394.155060 251.065720,394.326202 251.037872,394.754883 
	C250.844986,394.733429 250.739914,394.454346 250.790314,394.079590 
z"/>
<path fill="#EAEAE8" opacity="1.000000" stroke="none" 
	d="
M213.117462,469.009949 
	C209.146194,469.489410 207.523529,468.393860 207.654205,464.439270 
	C207.927612,456.165710 207.737076,447.876801 207.737076,438.475677 
	C214.876068,438.965302 221.657578,438.922028 228.243011,440.036957 
	C233.894516,440.993774 237.591934,444.812042 238.289673,450.924561 
	C239.040878,457.505341 237.231873,463.434662 230.976562,465.847443 
	C225.577484,467.929993 219.414566,468.032288 213.117462,469.009949 
z"/>
<path fill="#EFEEEC" opacity="1.000000" stroke="none" 
	d="
M283.298401,502.797119 
	C281.798737,501.860657 279.887451,500.933685 279.879395,499.990417 
	C279.707367,479.868805 279.748871,459.745331 279.748871,438.427734 
	C289.588196,439.009064 299.201447,438.447632 308.278870,440.390167 
	C320.494812,443.004303 326.053009,452.766022 327.458069,464.480133 
	C328.138367,470.151794 327.742218,476.200104 326.539673,481.800049 
	C323.793457,494.588470 313.911102,502.280914 300.762207,502.701843 
	C295.103943,502.883057 289.436401,502.775482 283.298401,502.797119 
z"/>
<path fill="#EAEBEE" opacity="1.000000" stroke="none" 
	d="
M320.777069,406.834259 
	C313.921997,411.764008 307.364014,416.491791 299.592346,422.094574 
	C299.592346,416.672424 299.589478,412.484375 299.593048,408.296295 
	C299.598419,401.977692 299.505310,395.656036 299.693451,389.342804 
	C299.736877,387.885803 300.326569,385.882233 301.382446,385.105164 
	C312.075745,377.235504 322.914825,369.563751 333.733765,361.865662 
	C334.069977,361.626434 334.630371,361.702240 335.765747,361.525208 
	C335.765747,372.631134 335.843018,383.531769 335.650360,394.427643 
	C335.630310,395.561646 334.188507,396.898682 333.098328,397.744507 
	C329.161469,400.798859 325.092987,403.683533 320.777069,406.834259 
z"/>
<path fill="#EAEAF0" opacity="1.000000" stroke="none" 
	d="
M279.041809,377.332214 
	C283.109039,379.860565 287.220428,382.322357 291.207916,384.970734 
	C292.051880,385.531250 292.954224,386.767883 292.964661,387.702667 
	C293.086426,398.629669 293.042694,409.558533 293.042694,421.552521 
	C290.898102,420.207855 289.524872,419.455780 288.269196,418.542145 
	C278.986511,411.788147 269.798370,404.901001 260.416199,398.288879 
	C257.684784,396.363922 256.296051,394.338959 256.551697,390.926056 
	C256.849365,386.951935 256.708405,382.945007 257.333527,378.544586 
	C264.953430,377.868652 271.997620,377.600433 279.041809,377.332214 
z"/>
<path fill="#EAEAF0" opacity="1.000000" stroke="none" 
	d="
M297.023621,328.083954 
	C308.993927,336.621307 320.964233,345.158691 333.522858,354.115662 
	C323.525024,361.335663 314.170685,368.092987 304.813629,374.846558 
	C302.796082,376.302765 300.885468,377.969482 298.700562,379.107117 
	C297.466858,379.749420 295.774628,379.511047 294.270935,379.045410 
	C294.818420,376.787842 295.876129,375.153076 295.872437,373.520782 
	C295.839447,358.971527 295.619080,344.422699 295.560669,329.565735 
	C296.119476,328.866486 296.571533,328.475220 297.023621,328.083954 
z"/>
<path fill="#415EF0" opacity="1.000000" stroke="none" 
	d="
M295.453918,329.873749 
	C295.619080,344.422699 295.839447,358.971527 295.872437,373.520782 
	C295.876129,375.153076 294.818420,376.787842 294.016418,378.746826 
	C293.779938,379.072235 293.319031,379.097900 292.972351,378.770050 
	C281.947113,370.527924 271.268524,362.613617 259.937195,354.215515 
	C262.009064,352.768829 263.419769,351.783813 265.301910,350.854553 
	C267.251556,350.938019 268.729675,350.983154 270.207947,350.990448 
	C278.528687,351.031372 279.297241,350.120728 278.028595,341.621887 
	C283.933868,337.500336 289.693909,333.687042 295.453918,329.873749 
z"/>
<path fill="#0B2275" opacity="1.000000" stroke="none" 
	d="
M295.560669,329.565735 
	C289.693909,333.687042 283.933868,337.500336 277.712524,341.753448 
	C273.110962,345.061798 268.970703,347.930298 264.830444,350.798798 
	C263.419769,351.783813 262.009064,352.768829 259.937195,354.215515 
	C271.268524,362.613617 281.947113,370.527924 292.742310,378.751770 
	C290.111664,378.393951 287.362732,377.733459 284.617828,377.056610 
	C282.919128,376.637726 281.226501,376.194031 278.891479,375.774292 
	C276.525024,374.803467 274.798187,373.819824 272.874512,372.571014 
	C270.138031,370.511597 267.598480,368.717316 264.962433,366.597534 
	C262.651093,364.756256 260.436249,363.240448 257.860992,361.478027 
	C257.317139,362.976746 256.851776,363.695496 256.823273,364.431122 
	C256.660919,368.621979 256.602692,372.816895 256.509125,377.010406 
	C255.043686,377.299225 253.578232,377.588074 251.802444,377.944244 
	C251.310898,369.990784 251.129715,361.970001 251.066559,353.251343 
	C251.485992,352.040344 251.787415,351.527283 252.430328,350.979340 
	C261.175507,344.646210 269.579193,338.347931 277.982849,332.049652 
	C282.353912,329.236877 286.690063,326.367432 291.114655,323.641571 
	C292.701233,322.664093 294.501190,322.032959 296.515869,321.424500 
	C296.889069,323.488129 296.950195,325.370972 297.017456,327.668884 
	C296.571533,328.475220 296.119476,328.866486 295.560669,329.565735 
z"/>
<path fill="#576BD5" opacity="1.000000" stroke="none" 
	d="
M256.619385,377.302856 
	C256.602692,372.816895 256.660919,368.621979 256.823273,364.431122 
	C256.851776,363.695496 257.317139,362.976746 257.860992,361.478027 
	C260.436249,363.240448 262.651093,364.756256 264.601074,366.578278 
	C262.816864,366.341003 261.297516,365.797455 259.827972,365.271759 
	C255.813065,372.229462 257.174255,375.009430 264.348633,375.026764 
	C266.333191,375.031586 268.359589,375.247406 270.285461,374.906830 
	C271.304321,374.726624 272.148407,373.558350 273.071381,372.836151 
	C274.798187,373.819824 276.525024,374.803467 278.557129,375.902802 
	C278.911926,376.234650 278.961487,376.450836 279.026428,376.999573 
	C271.997620,377.600433 264.953430,377.868652 257.434265,378.156738 
	C256.882721,377.982819 256.806183,377.789032 256.619385,377.302856 
z"/>
<path fill="#EEEDEB" opacity="1.000000" stroke="none" 
	d="
M507.949707,503.116272 
	C490.777313,502.420959 480.351746,492.422852 479.027313,475.763184 
	C478.257935,466.085205 479.108307,456.710846 485.284546,448.681671 
	C497.743774,432.484497 524.573425,435.501892 533.107300,454.117706 
	C537.609314,463.938416 537.779175,474.227081 534.380310,484.345123 
	C530.272705,496.573242 521.752930,502.448883 507.949707,503.116272 
z"/>
<path fill="#EEEDEB" opacity="1.000000" stroke="none" 
	d="
M167.354279,494.314087 
	C158.397690,503.678040 147.654541,504.986176 136.328964,501.590546 
	C125.087791,498.220215 119.663063,489.376892 117.929573,478.309174 
	C116.658020,470.190735 116.907928,462.029724 120.517441,454.349060 
	C125.573761,443.589691 134.273529,438.424286 145.957123,438.356445 
	C157.584885,438.288940 166.930588,442.877838 171.550690,453.919128 
	C177.357712,467.796967 176.901047,481.451294 167.354279,494.314087 
z"/>
<path fill="#EAEAE8" opacity="1.000000" stroke="none" 
	d="
M402.797913,558.999817 
	C402.799072,552.183167 402.988098,545.858643 402.728638,539.552612 
	C402.579803,535.935242 403.975464,535.071167 407.347992,535.090088 
	C420.471680,535.163574 425.167023,539.503845 425.501709,552.551941 
	C425.616608,557.030518 425.716675,561.557434 425.215759,565.993652 
	C424.212341,574.879944 419.672394,578.874084 410.747589,579.263672 
	C408.299011,579.370605 405.841797,579.279907 402.797729,579.279907 
	C402.797729,572.347717 402.797729,565.923706 402.797913,558.999817 
z"/>
<path fill="#1E53EF" opacity="1.000000" stroke="none" 
	d="
M277.992004,331.576172 
	C269.579193,338.347931 261.175507,344.646210 252.041870,350.817780 
	C248.855576,350.467896 246.400818,350.074066 243.942657,350.051636 
	C234.278793,349.963318 224.613876,349.991882 214.997406,349.624878 
	C216.228973,347.500854 217.153549,345.466064 218.640198,344.002014 
	C225.562988,337.184448 232.786484,330.668945 239.630722,323.775635 
	C250.669754,312.657501 261.449707,301.282257 272.467255,290.142365 
	C273.904419,288.689270 276.100342,287.986511 277.944794,286.936188 
	C277.966827,289.834656 278.006775,292.733124 278.007843,295.631592 
	C278.012085,307.455292 278.004456,319.279022 277.992004,331.576172 
z"/>
<path fill="#55B0E3" opacity="1.000000" stroke="none" 
	d="
M208.908325,351.894775 
	C208.539642,351.936584 208.170990,351.978363 207.527054,352.039307 
	C207.189163,351.589417 207.126556,351.120331 207.176971,349.998413 
	C211.938599,343.991211 216.309998,338.361755 221.294540,333.340942 
	C231.118958,323.445129 241.247803,313.849701 251.317886,304.200104 
	C260.133911,295.752167 269.041931,287.400208 277.909271,279.005829 
	C278.389191,279.033966 278.869080,279.062073 279.697449,279.183411 
	C279.760925,279.946350 279.475983,280.616119 278.707031,281.598572 
	C277.616882,282.156311 276.851776,282.243011 276.427246,282.669067 
	C254.804550,304.369690 233.200729,326.089203 211.642761,347.854126 
	C210.517960,348.989746 209.810226,350.538422 208.908325,351.894775 
z"/>
<path fill="#1D67D8" opacity="1.000000" stroke="none" 
	d="
M208.966949,351.924988 
	C209.810226,350.538422 210.517960,348.989746 211.642761,347.854126 
	C233.200729,326.089203 254.804550,304.369690 276.427246,282.669067 
	C276.851776,282.243011 277.616882,282.156311 278.572388,281.846436 
	C278.610748,283.252167 278.299866,284.722687 277.966858,286.564697 
	C276.100342,287.986511 273.904419,288.689270 272.467255,290.142365 
	C261.449707,301.282257 250.669754,312.657501 239.630722,323.775635 
	C232.786484,330.668945 225.562988,337.184448 218.640198,344.002014 
	C217.153549,345.466064 216.228973,347.500854 214.655060,349.675781 
	C212.556671,350.725769 210.848694,351.372711 209.140732,352.019684 
	C209.140732,352.019684 209.025589,351.955231 208.966949,351.924988 
z"/>
<path fill="#EAEAE8" opacity="1.000000" stroke="none" 
	d="
M468.858643,578.144653 
	C457.657562,582.485413 450.014221,577.953003 449.380920,566.622070 
	C449.010284,559.990173 449.084045,553.306824 449.414886,546.669373 
	C449.790649,539.131165 454.315033,534.906616 461.452026,534.750916 
	C469.196045,534.582031 473.691467,538.251038 474.219360,546.254883 
	C474.710388,553.699768 474.822510,561.252686 474.086487,568.657166 
	C473.764862,571.892700 470.913971,574.876831 468.858643,578.144653 
z"/>
<path fill="#E5E4E4" opacity="1.000000" stroke="none" 
	d="
M499.094482,540.255859 
	C498.484894,535.985657 500.179016,534.633545 503.863281,535.086060 
	C506.002167,535.348755 508.188629,535.199158 510.340363,535.387268 
	C517.101929,535.978455 520.609985,539.753845 520.670959,546.397644 
	C520.730469,552.884460 517.086060,556.859070 510.430939,557.565552 
	C499.093323,558.769165 499.093292,558.769226 499.093872,547.715637 
	C499.093964,545.385925 499.094391,543.056152 499.094482,540.255859 
z"/>
<path fill="#EAEAE8" opacity="1.000000" stroke="none" 
	d="
M123.510445,579.129089 
	C119.947487,579.185852 116.826912,579.185852 113.456421,579.185852 
	C113.456421,564.500427 113.456421,550.262207 113.456421,536.052185 
	C126.929764,532.020203 135.715607,538.201050 136.054321,551.927795 
	C136.156876,556.084717 136.186127,560.256897 135.957214,564.405945 
	C135.453278,573.540039 132.786087,576.692383 123.510445,579.129089 
z"/>
<path fill="#E5E4E4" opacity="1.000000" stroke="none" 
	d="
M371.930237,565.386597 
	C367.494507,565.372681 363.546570,565.372681 358.731262,565.372681 
	C361.482910,556.690613 364.028351,548.659119 366.573792,540.627625 
	C367.032501,540.582886 367.491211,540.538147 367.949921,540.493408 
	C369.626862,545.698425 371.301178,550.904358 372.982086,556.108093 
	C373.695007,558.315186 374.709595,560.482971 374.983459,562.741821 
	C375.076996,563.513000 373.326141,564.507812 371.930237,565.386597 
z"/>
<path fill="#E5E4E4" opacity="1.000000" stroke="none" 
	d="
M238.815536,565.402588 
	C234.565735,565.402588 230.789215,565.402588 226.239975,565.402588 
	C229.058350,556.478638 231.627869,548.342590 234.197403,540.206543 
	C234.604050,540.178589 235.010712,540.150635 235.417358,540.122681 
	C238.022430,548.208374 240.627502,556.294128 243.412262,564.937561 
	C241.717438,565.128662 240.503113,565.265625 238.815536,565.402588 
z"/>
<path fill="#E5E4E4" opacity="1.000000" stroke="none" 
	d="
M343.411926,309.039429 
	C344.240723,307.899384 345.460907,306.814270 346.847656,305.452423 
	C348.905884,305.763519 350.797577,306.351318 352.843414,307.103027 
	C350.724182,311.857605 347.093933,309.621643 343.411926,309.039429 
z"/>
<path fill="#56C6C5" opacity="1.000000" stroke="none" 
	d="
M277.949097,278.538086 
	C269.041931,287.400208 260.133911,295.752167 251.317886,304.200104 
	C241.247803,313.849701 231.118958,323.445129 221.294540,333.340942 
	C216.309998,338.361755 211.938599,343.991211 207.141968,349.644989 
	C193.687195,349.944458 180.380432,349.944458 167.042480,349.944458 
	C167.716797,346.305237 271.431732,241.447083 277.988922,238.017532 
	C277.988922,251.632156 277.988922,264.851227 277.949097,278.538086 
z"/>
<path fill="#3E5BFA" opacity="1.000000" stroke="none" 
	d="
M209.090317,352.382141 
	C210.848694,351.372711 212.556671,350.725769 214.606995,350.027954 
	C224.613876,349.991882 234.278793,349.963318 243.942657,350.051636 
	C246.400818,350.074066 248.855576,350.467896 251.700363,350.852631 
	C251.787415,351.527283 251.485992,352.040344 250.996643,352.788879 
	C250.211014,354.375549 249.143738,355.712402 249.101868,357.080627 
	C248.964935,361.553497 249.141998,366.040131 249.317032,370.516846 
	C249.419922,373.148712 249.067078,375.073334 245.721420,375.063324 
	C233.662674,375.027222 221.603561,375.114899 209.544571,375.142517 
	C203.073502,375.157349 196.602386,375.145142 189.156693,375.145142 
	C190.384628,373.537903 191.007309,372.514313 191.826523,371.684814 
	C196.719147,366.731140 201.708328,361.871674 206.540619,356.860596 
	C207.627579,355.733398 208.219879,354.129211 209.090317,352.382141 
z"/>
<path fill="#1E53EF" opacity="1.000000" stroke="none" 
	d="
M265.301910,350.854553 
	C268.970703,347.930298 273.110962,345.061798 277.567322,342.061707 
	C279.297241,350.120728 278.528687,351.031372 270.207947,350.990448 
	C268.729675,350.983154 267.251556,350.938019 265.301910,350.854553 
z"/>
<path fill="#415EF0" opacity="1.000000" stroke="none" 
	d="
M272.874512,372.571014 
	C272.148407,373.558350 271.304321,374.726624 270.285461,374.906830 
	C268.359589,375.247406 266.333191,375.031586 264.348633,375.026764 
	C257.174255,375.009430 255.813065,372.229462 259.827972,365.271759 
	C261.297516,365.797455 262.816864,366.341003 264.697571,366.903778 
	C267.598480,368.717316 270.138031,370.511597 272.874512,372.571014 
z"/>
</svg>