<svg version="1.1" id="Layer_1" xmlns="http://www.w3.org/2000/svg" xmlns:xlink="http://www.w3.org/1999/xlink" x="0px" y="0px"
	 width="100%" viewBox="0 0 576 560" enable-background="new 0 0 576 560" xml:space="preserve">
<path fill="#000000" opacity="1.000000" stroke="none" 
	d="
M382.851501,141.018570 
	C378.360199,147.168015 372.028442,148.412445 362.871063,145.114273 
	C361.691498,148.843109 362.175690,152.603439 362.499573,156.303543 
	C362.670441,158.255264 364.545319,158.868515 366.115265,159.330765 
	C371.058563,160.786194 376.048187,162.083664 381.012360,163.469070 
	C382.616211,163.916672 384.225006,164.372559 385.780914,164.958984 
	C387.595581,165.642960 389.246338,166.774994 388.734772,168.969727 
	C388.150177,171.477753 385.945160,171.763092 383.913147,171.232956 
	C378.759521,169.888458 373.668732,168.303818 368.548462,166.830368 
	C366.965271,166.374786 365.368164,165.967606 363.470947,165.455536 
	C361.889984,169.167496 359.182190,171.622177 356.052307,173.920410 
	C352.572998,176.475266 353.766815,183.495987 357.673553,185.295853 
	C359.120544,185.962494 360.482758,186.598328 360.279663,188.457962 
	C360.052063,190.542099 358.412781,191.142532 356.684998,191.228043 
	C353.525909,191.384338 350.354950,191.429352 347.192596,191.358047 
	C343.637695,191.277893 342.090729,192.783096 342.120026,196.436539 
	C342.214905,208.266434 341.994690,220.099884 342.181793,231.927444 
	C342.246613,236.025681 340.883698,238.589859 337.452667,240.988358 
	C324.944122,249.732544 312.700195,258.855316 299.729004,268.291962 
	C308.382324,270.227875 316.552856,271.092468 323.053253,276.625610 
	C336.912689,288.422729 339.118713,303.771240 335.659546,320.291687 
	C332.543945,335.171295 322.974518,344.462738 308.005707,347.852814 
	C306.241180,348.252472 304.371338,348.302673 302.549133,348.313293 
	C290.551788,348.383148 278.554169,348.403595 266.556610,348.424500 
	C264.618927,348.427887 262.250763,349.015656 261.866669,346.098389 
	C261.530304,343.543427 262.302521,340.994873 265.124786,340.786346 
	C270.806580,340.366608 270.876373,336.885254 270.830658,332.510956 
	C270.658386,316.015808 270.712463,299.517578 270.796814,283.021088 
	C270.814240,279.613281 270.383514,277.209595 266.106659,277.120728 
	C263.115540,277.058533 261.751862,274.786560 261.970276,271.919556 
	C262.202850,268.867004 264.734253,268.991913 266.872955,268.968903 
	C273.537567,268.897125 280.203491,268.950226 286.868683,268.914062 
	C288.462402,268.905426 290.136200,269.239014 291.747650,268.369263 
	C291.005890,266.054565 289.141327,265.177582 287.579590,264.049561 
	C276.508453,256.053040 265.431091,248.064987 254.320938,240.122894 
	C252.019760,238.477890 250.607773,236.663300 250.652542,233.555847 
	C250.838104,220.672867 249.934448,207.791962 250.648239,194.897385 
	C250.820038,191.793869 251.685532,189.595840 254.268982,187.754333 
	C262.942749,181.571625 271.626190,175.386673 280.035461,168.854416 
	C285.314392,164.753784 291.983826,161.953430 294.008423,154.640793 
	C305.381134,164.766678 318.118256,172.200760 329.634125,181.265182 
	C331.463928,182.705475 333.535309,183.855713 335.276489,185.388321 
	C338.582001,188.297913 342.164093,189.189346 346.479309,187.418167 
	C345.954926,185.652512 344.773254,183.744247 344.991333,182.012253 
	C345.598694,177.189117 343.924011,174.767441 339.060181,173.908096 
	C335.979187,173.363770 336.028198,170.353165 335.914276,167.821060 
	C335.436493,157.201599 335.439941,157.189926 325.162628,154.097382 
	C321.656250,153.042267 318.099396,152.148193 314.618652,151.017181 
	C312.315094,150.268646 309.116730,149.719238 310.084442,146.294556 
	C311.031006,142.944870 313.898163,143.904526 316.356842,144.606003 
	C321.480621,146.067841 326.638306,147.420532 331.720184,149.015182 
	C334.016754,149.735794 335.571960,149.660675 336.317474,147.029236 
	C336.814484,145.274872 338.513824,144.659348 339.818146,143.641937 
	C345.116730,139.508896 352.088837,140.031952 357.839142,137.068008 
	C359.796417,136.059158 362.162079,137.230179 363.915192,138.563004 
	C368.455597,142.014923 372.885803,141.545105 377.272919,138.422989 
	C380.370941,136.218262 382.134674,136.984573 382.851501,141.018570 
M322.483765,327.863159 
	C329.044037,314.942932 329.514130,302.008667 322.048157,289.332855 
	C318.307098,282.981171 312.398590,279.152710 305.093079,278.334229 
	C298.504425,277.596100 291.820557,277.738617 285.185120,277.374817 
	C281.890198,277.194153 280.277649,278.301971 280.295105,281.865662 
	C280.382294,299.658722 280.387726,317.452789 280.289856,335.245728 
	C280.270538,338.760162 281.767761,339.965851 285.088531,339.879852 
	C290.240540,339.746399 295.398376,339.858276 300.552979,339.799835 
	C309.647552,339.696777 316.977509,336.187347 322.483765,327.863159 
M322.857422,242.334259 
	C325.026520,240.788895 327.103027,239.087662 329.384979,237.732300 
	C333.474945,235.303085 335.362640,232.137848 335.051239,227.121857 
	C334.598053,219.822769 334.953796,212.475372 334.873566,205.149567 
	C334.858612,203.783585 335.458344,202.110382 333.377045,200.940994 
	C325.684296,206.490326 318.290558,212.852249 309.957397,217.546738 
	C301.590424,222.260330 299.139160,228.476654 300.096222,237.502243 
	C300.800018,244.139145 300.234283,250.910629 300.234283,258.713074 
	C308.309143,252.859543 315.287445,247.800919 322.857422,242.334259 
M257.275208,224.543869 
	C256.087799,230.711441 258.419678,234.988037 263.954132,237.934143 
	C266.563690,239.323273 268.711090,241.553757 271.181335,243.236526 
	C277.831055,247.766434 283.857727,253.227188 291.825043,257.601624 
	C291.825043,246.481705 291.836548,236.252304 291.810303,226.022995 
	C291.807068,224.766190 290.992401,223.894302 290.043396,223.151581 
	C284.774963,219.028458 279.560425,214.927567 272.123047,216.184814 
	C269.867584,216.566101 267.479065,216.199081 265.153412,216.119141 
	C257.482666,215.855545 257.286377,216.032867 257.275208,224.543869 
M328.117340,189.213760 
	C317.814697,181.784119 307.512054,174.354492 296.465363,166.388306 
	C296.465363,184.000778 296.465363,200.450089 296.465363,217.756058 
	C308.497650,209.099411 319.894562,200.899887 331.063599,192.864304 
	C330.634247,190.877121 329.506775,190.356995 328.117340,189.213760 
M286.121887,184.670502 
	C290.536560,181.803360 290.542389,177.939117 288.876556,172.640533 
	C278.656586,178.350952 270.948090,186.351730 261.016632,191.272522 
	C266.353241,197.742554 268.157501,197.652771 271.316803,191.607391 
	C272.006287,190.288010 272.669342,188.953094 273.407471,187.661270 
	C274.336914,186.034653 275.660675,185.108582 277.506927,186.145416 
	C280.491425,187.821487 282.920624,186.265961 286.121887,184.670502 
M259.860535,208.173538 
	C260.041687,208.814316 260.185760,209.468521 260.411652,210.093124 
	C260.900391,211.444672 261.718719,212.561737 263.311218,212.213348 
	C264.004852,212.061615 264.884308,211.373367 265.108429,210.729935 
	C265.701843,209.026093 264.372467,208.250793 263.055115,207.938034 
	C261.368896,207.537674 261.022217,205.270050 258.714203,205.265121 
	C259.072662,206.159729 259.360931,206.879135 259.860535,208.173538 
M351.014160,145.486191 
	C348.847839,142.973343 347.062897,144.148544 344.328308,146.424088 
	C347.159637,146.667679 348.964539,147.468216 351.014160,145.486191 
z"/>
<path fill="#000000" opacity="1.000000" stroke="none" 
	d="
M252.656281,340.228912 
	C255.831985,341.212494 257.163300,343.202637 256.652924,346.038269 
	C256.026123,349.520477 253.074982,348.129425 250.957993,348.397064 
	C246.392090,348.974335 243.159454,347.254730 240.373062,343.443268 
	C234.772522,335.782379 228.710388,328.458374 222.818008,321.011780 
	C221.682205,319.576385 220.512985,318.157562 219.251984,316.833191 
	C216.705170,314.158386 213.328964,314.489288 210.338501,315.224304 
	C207.236115,315.986847 208.525070,319.119934 208.419907,321.241943 
	C208.205673,325.564789 208.467987,329.909821 208.302246,334.236847 
	C208.170197,337.684326 208.869522,340.117706 212.965240,340.317657 
	C214.021057,340.369202 215.176102,341.094574 216.037781,341.809174 
	C217.485855,343.010101 217.407089,344.784576 217.097580,346.448120 
	C216.784180,348.132446 215.328003,348.313721 213.983673,348.327576 
	C206.984833,348.399689 199.985367,348.410370 192.986160,348.448517 
	C191.278687,348.457825 190.031860,347.860596 189.851746,345.984100 
	C189.620972,343.579987 190.381958,341.115448 192.827042,340.926422 
	C199.106583,340.441040 198.875519,336.431915 198.832123,331.827942 
	C198.679764,315.663300 198.725983,299.495880 198.824646,283.330322 
	C198.846329,279.776703 198.581802,277.109283 193.960922,277.068542 
	C191.222244,277.044403 190.038940,274.839813 190.039230,272.177063 
	C190.039490,269.758179 191.678131,268.980408 193.693573,269.046051 
	C206.137314,269.451324 218.658325,267.523285 231.022018,270.507629 
	C240.041046,272.684601 245.706741,278.257446 247.097214,286.799866 
	C248.545944,295.700256 244.637543,304.957550 237.380630,309.352295 
	C234.841583,310.889954 232.062683,312.031525 228.718597,313.688232 
	C235.468872,322.167358 242.044525,330.448547 248.653214,338.703308 
	C249.554352,339.828888 250.974030,339.916870 252.656281,340.228912 
M208.339417,293.485992 
	C208.353836,296.471283 208.365616,299.456604 208.383636,302.441864 
	C208.394913,304.311462 209.023483,305.823181 211.143448,305.836578 
	C216.758041,305.872101 222.445312,306.631226 227.914001,304.702515 
	C234.503159,302.378632 238.533600,295.852631 237.644073,289.118439 
	C236.814407,282.837585 232.149979,278.764832 224.817200,278.138519 
	C220.690445,277.786072 216.537109,277.755127 212.404404,277.458466 
	C209.353088,277.239410 208.231537,278.601685 208.330658,281.551300 
	C208.453140,285.195831 208.347183,288.848083 208.339417,293.485992 
z"/>
<path fill="#000000" opacity="1.000000" stroke="none" 
	d="
M130.504669,271.274902 
	C148.952377,263.213318 168.419815,271.068878 176.281662,282.456390 
	C182.288757,291.157410 184.732086,300.811615 184.170532,311.289551 
	C183.390717,325.839966 178.142258,338.158295 164.713272,345.094910 
	C142.353455,356.644623 112.296432,346.084747 108.689011,315.742432 
	C106.990166,301.453278 109.830521,288.605286 120.245148,278.055847 
	C123.093185,275.170929 126.424591,273.006470 130.504669,271.274902 
M142.959641,277.330231 
	C129.626099,278.071289 120.648010,288.788940 118.775299,300.728790 
	C118.046516,305.375366 118.014053,310.036499 118.395744,314.673370 
	C119.331070,326.035889 126.609978,336.441406 136.455460,338.736206 
	C151.219879,342.177521 160.825378,339.412048 167.794739,330.565277 
	C173.393402,323.458496 174.218781,315.174347 174.016708,306.483337 
	C173.574127,287.447052 162.723831,276.809631 142.959641,277.330231 
z"/>
<path fill="#000000" opacity="1.000000" stroke="none" 
	d="
M534.364868,278.649109 
	C549.118408,293.096527 548.262939,322.654266 537.259583,335.806641 
	C527.956970,346.926056 516.010132,350.899170 502.053314,349.081299 
	C488.499329,347.315918 478.555695,340.373596 473.295349,327.360962 
	C467.344666,312.640381 467.986084,298.120850 476.240295,284.703522 
	C488.441010,264.871033 516.082581,262.137909 534.364868,278.649109 
M488.953918,333.562988 
	C503.757416,346.419769 526.533203,340.851318 533.450439,322.615997 
	C536.436646,314.743744 536.520569,306.582001 534.560791,298.524994 
	C532.067261,288.273407 526.266113,280.604218 515.491455,278.174896 
	C505.057587,275.822388 495.425476,277.057922 487.440918,285.375519 
	C477.715149,295.506927 475.679291,321.500671 488.953918,333.562988 
z"/>
<path fill="#000000" opacity="1.000000" stroke="none" 
	d="
M351.725037,287.092346 
	C351.710663,284.941437 351.664703,283.274872 351.694580,281.609711 
	C351.738922,279.139435 351.084686,277.411072 348.134277,277.329132 
	C344.845947,277.237885 342.629578,275.679230 342.855316,272.101959 
	C343.121307,267.887146 346.546783,269.001007 348.959503,268.986145 
	C364.120239,268.892548 379.283600,269.065643 394.442078,268.859161 
	C399.250031,268.793701 401.697174,270.103455 401.122864,275.343719 
	C400.797943,278.308502 401.050995,281.335052 401.013153,284.333405 
	C400.987061,286.399933 400.875702,288.552460 398.189270,288.844055 
	C395.653320,289.119354 393.520325,288.226929 392.586304,285.667786 
	C392.138580,284.441010 391.981476,283.069916 391.909576,281.752319 
	C391.763458,279.072845 390.457825,277.917297 387.773621,277.938019 
	C380.276978,277.995941 372.779297,277.984985 365.282562,277.926361 
	C362.235199,277.902557 361.240509,279.385162 361.306244,282.280914 
	C361.438629,288.109283 361.462921,293.944885 361.326141,299.772675 
	C361.253662,302.860443 362.636627,303.907745 365.519989,303.882812 
	C372.350189,303.823730 379.182007,303.940308 386.011871,303.866516 
	C389.059387,303.833557 391.196014,304.405914 391.275330,308.139343 
	C391.356079,311.940521 389.470856,313.079926 386.037872,313.040070 
	C379.374939,312.962616 372.709686,313.089813 366.046448,313.024200 
	C362.725281,312.991516 361.194275,314.293671 361.287781,317.781891 
	C361.448395,323.773315 361.407471,329.773773 361.290466,335.767334 
	C361.238495,338.429291 362.073730,339.865326 364.934113,339.842865 
	C372.597351,339.782715 380.261261,339.774200 387.924744,339.798553 
	C390.663483,339.807251 391.780640,338.446136 391.910919,335.817871 
	C391.984009,334.342712 392.199951,332.787811 392.765686,331.443085 
	C393.763916,329.070251 395.972992,328.711182 398.238831,328.957001 
	C400.320892,329.182892 400.788910,330.816315 400.978302,332.571167 
	C401.014008,332.902069 401.045746,333.235779 401.044189,333.568054 
	C400.958649,351.725037 403.213135,348.087494 387.495636,348.356049 
	C374.504150,348.578003 361.505341,348.422943 348.510406,348.338165 
	C346.362732,348.324188 343.414093,349.221527 342.935455,345.764496 
	C342.488464,342.536011 344.348053,340.545990 347.412537,340.312439 
	C351.317474,340.014832 351.790405,337.778015 351.771851,334.560577 
	C351.681641,318.899933 351.728851,303.238495 351.725037,287.092346 
z"/>
<path fill="#000000" opacity="1.000000" stroke="none" 
	d="
M84.872688,339.769135 
	C89.869232,340.086853 94.016785,340.331177 94.290459,333.762634 
	C94.414879,330.776398 97.564857,330.315338 100.179474,330.464539 
	C103.273903,330.641052 103.104454,333.055481 103.189293,335.252686 
	C103.694489,348.335693 103.699440,348.349335 90.626053,348.380890 
	C77.981674,348.411377 65.337135,348.434814 52.692871,348.395477 
	C50.688179,348.389252 48.055565,349.201416 47.757980,345.811371 
	C47.499920,342.871613 48.788536,340.710968 51.704586,340.426300 
	C56.168465,339.990601 56.810825,337.443298 56.780846,333.615662 
	C56.647823,316.631744 56.681961,299.645813 56.787079,282.661407 
	C56.807690,279.330902 56.204891,277.245697 52.238544,277.236633 
	C48.978966,277.229187 47.565525,275.042847 47.757267,271.873383 
	C47.952534,268.645569 50.457050,268.982697 52.564457,268.961395 
	C58.558491,268.900726 64.553551,268.936707 70.548195,268.943329 
	C72.569099,268.945587 74.764351,268.769012 75.076019,271.593964 
	C75.363464,274.199402 74.463821,276.721924 71.763443,276.906982 
	C66.390427,277.275238 66.372131,280.829163 66.369339,284.616394 
	C66.357567,300.602081 66.330917,316.587921 66.382027,332.573425 
	C66.403549,339.305176 67.043259,339.830109 73.903862,339.783081 
	C77.400620,339.759125 80.897621,339.772308 84.872688,339.769135 
z"/>
<path fill="#000000" opacity="1.000000" stroke="none" 
	d="
M413.082916,277.232056 
	C409.466278,276.392303 408.285614,274.115723 408.921509,271.160522 
	C409.557861,268.203430 412.308960,269.009308 414.317017,268.969940 
	C419.975311,268.858826 425.637726,268.899933 431.297699,268.959473 
	C433.471619,268.982361 435.886719,268.955017 436.118622,272.004730 
	C436.323853,274.703308 435.002289,276.894135 432.342102,276.992432 
	C427.584778,277.168243 427.244476,279.873749 427.271759,283.644928 
	C427.393250,300.459290 427.436157,317.276428 427.238098,334.089417 
	C427.186371,338.480438 428.720734,340.051544 433.032928,339.860016 
	C438.682648,339.609070 444.352142,339.727142 450.011566,339.803528 
	C452.947113,339.843140 454.750427,339.041168 454.842102,335.654877 
	C454.942474,331.945984 457.172302,330.393219 460.823486,330.667969 
	C464.587402,330.951172 464.097626,333.766479 464.171326,336.205536 
	C464.542267,348.482574 464.531036,348.439362 452.228943,348.407471 
	C439.409882,348.374207 426.590546,348.450958 413.771332,348.442383 
	C411.702911,348.441010 409.173615,349.084137 408.809357,345.813019 
	C408.478455,342.841400 409.810364,340.659851 412.725525,340.467773 
	C417.628723,340.144745 417.937592,337.259125 417.903809,333.346466 
	C417.758575,316.532471 417.809296,299.716461 417.852142,282.901367 
	C417.860077,279.784424 417.598053,277.102905 413.082916,277.232056 
z"/>
<path fill="#000000" opacity="1.000000" stroke="none" 
	d="
M520.818604,370.024170 
	C529.494934,377.132385 530.468628,388.633636 522.826050,397.120117 
	C519.893311,400.376678 519.973816,402.941345 521.695435,406.432129 
	C523.601379,410.296570 525.206970,414.321411 526.728760,418.357361 
	C527.395081,420.124603 529.679932,422.557495 526.394165,423.773804 
	C523.631348,424.796509 520.742676,424.416565 519.322388,421.048004 
	C517.515076,416.761322 515.592407,412.521301 513.873047,408.200043 
	C511.780945,402.941681 507.228668,400.742462 502.062347,402.526337 
	C500.165070,403.181488 500.163391,404.646545 500.135284,406.126953 
	C500.049957,410.614777 500.047394,415.104095 499.983276,419.592407 
	C499.946320,422.178955 499.279907,424.145508 496.060547,424.153137 
	C492.963135,424.160461 491.942352,422.437958 491.942932,419.748657 
	C491.946594,403.287750 491.980499,386.826813 492.003815,370.365906 
	C492.006989,368.134552 492.708069,366.240265 495.232056,366.157959 
	C503.861145,365.876617 512.577942,365.183624 520.818604,370.024170 
M519.692627,386.026642 
	C519.776123,376.530579 510.162598,370.346619 501.769379,374.457397 
	C500.297363,375.178375 500.071625,376.434509 500.056366,377.754974 
	C500.004700,382.227844 500.004852,386.702423 500.075470,391.174896 
	C500.096039,392.477234 500.264435,393.773163 501.726196,394.518494 
	C507.848358,397.640015 517.138184,393.669312 519.692627,386.026642 
z"/>
<path fill="#000000" opacity="1.000000" stroke="none" 
	d="
M106.032318,380.019318 
	C106.028099,379.190399 106.024643,378.857758 106.025917,378.525146 
	C106.076515,365.328918 104.195694,365.820526 118.712929,366.078491 
	C135.821136,366.382477 143.225739,374.091187 143.251434,391.127533 
	C143.257202,394.952698 143.326721,398.780151 143.221771,402.602570 
	C142.866867,415.528473 135.340912,423.320312 122.445122,424.084900 
	C119.461189,424.261810 116.459633,424.159424 113.466232,424.155090 
	C106.417297,424.144836 106.065231,423.800201 106.058426,416.937988 
	C106.046394,404.797211 106.042557,392.656403 106.032318,380.019318 
M114.018074,397.499451 
	C114.041672,402.498077 114.041443,407.497040 114.102478,412.495209 
	C114.122429,414.129181 113.965927,415.820496 116.079453,416.592957 
	C124.206123,419.563080 134.330109,413.131073 134.807312,404.453644 
	C135.081451,399.469055 134.988174,394.459869 134.940903,389.462891 
	C134.832352,377.988464 130.043457,373.641083 118.499367,374.083801 
	C115.353111,374.204498 113.944656,375.275482 114.002892,378.504761 
	C114.111023,384.501251 114.023582,390.501251 114.018074,397.499451 
z"/>
<path fill="#000000" opacity="1.000000" stroke="none" 
	d="
M472.907562,368.847260 
	C478.009277,372.133759 480.614716,376.547333 481.271881,382.186523 
	C482.374512,391.648285 482.923584,401.119171 480.725647,410.485077 
	C478.640472,419.370453 471.494659,424.743011 462.125214,424.831268 
	C452.901367,424.918152 444.935577,419.554688 443.111542,410.893768 
	C440.903442,400.409241 440.669342,389.676941 443.354858,379.220367 
	C446.051056,368.722046 458.264862,362.965393 468.446991,366.898529 
	C469.842499,367.437561 471.197601,368.081177 472.907562,368.847260 
M453.127197,413.314758 
	C456.794861,417.807159 461.678864,417.377594 466.437317,416.180267 
	C470.769379,415.090240 473.267303,411.534088 473.495575,407.372314 
	C473.932892,399.400146 473.947693,391.369537 473.515747,383.396881 
	C473.208008,377.716827 468.810150,373.932007 463.338501,373.455048 
	C456.901154,372.893951 452.588501,375.654602 450.990997,381.810089 
	C449.121582,389.013275 450.432648,396.397247 450.192139,403.696564 
	C450.085571,406.930908 450.899628,409.962280 453.127197,413.314758 
z"/>
<path fill="#000000" opacity="1.000000" stroke="none" 
	d="
M416.959045,423.359650 
	C410.941711,424.751801 405.257599,424.002502 399.609222,424.115204 
	C396.884003,424.169556 395.756989,422.734619 395.760468,420.066986 
	C395.782135,403.403748 395.754028,386.740387 395.754364,370.077087 
	C395.754395,368.286407 396.218964,366.471436 398.255859,366.320282 
	C406.931732,365.676361 415.639160,365.412048 423.519958,369.990112 
	C429.543976,373.489532 431.997253,379.224396 432.224548,385.915131 
	C432.428101,391.907013 432.354218,397.912628 432.252197,403.909607 
	C432.082001,413.915131 427.198364,420.201416 416.959045,423.359650 
M403.465210,413.179840 
	C403.424530,414.759888 403.621918,416.057068 405.513947,416.643280 
	C413.023621,418.970276 421.951233,413.960388 423.908051,406.292694 
	C425.417419,400.378204 425.057709,394.360565 424.660889,388.414795 
	C423.959412,377.904755 419.510315,374.234314 408.872772,374.062775 
	C404.754272,373.996368 403.257080,375.385498 403.337738,379.525452 
	C403.551636,390.499573 403.449738,401.479858 403.465210,413.179840 
z"/>
<path fill="#000000" opacity="1.000000" stroke="none" 
	d="
M372.964722,373.217163 
	C378.075836,388.398041 383.077087,403.201691 388.042694,418.017303 
	C388.735779,420.085236 390.647491,422.686249 387.206665,423.860535 
	C384.281036,424.859039 381.834290,424.057617 380.494904,420.606689 
	C376.433380,410.142303 376.335815,410.180176 365.436096,410.185120 
	C357.199890,410.188843 357.194031,410.187073 354.689240,418.465240 
	C353.873566,421.160889 353.505066,424.148376 349.577820,424.129608 
	C346.426849,424.114532 344.739746,423.315460 345.996368,419.695404 
	C350.354248,407.141357 354.623077,394.556366 358.903870,381.975677 
	C360.135223,378.356964 361.222656,374.688019 362.509003,371.089630 
	C363.343323,368.755768 364.116058,366.224792 367.337982,366.135712 
	C370.675812,366.043427 371.265289,368.639679 372.131531,370.978455 
	C372.362671,371.602509 372.605865,372.222137 372.964722,373.217163 
M362.097870,395.446014 
	C361.589966,396.844574 360.996735,398.219208 360.595581,399.647736 
	C360.086212,401.461853 360.842163,402.648438 362.760498,402.632690 
	C366.464752,402.602356 370.254456,403.436432 374.501221,401.736084 
	C372.336853,394.713654 370.232941,387.887268 368.129028,381.060883 
	C367.681427,381.013306 367.233856,380.965729 366.786285,380.918152 
	C365.305786,385.510742 363.825317,390.103302 362.097870,395.446014 
z"/>
<path fill="#000000" opacity="1.000000" stroke="none" 
	d="
M245.787781,413.106995 
	C244.955643,410.180542 242.874069,410.241547 240.851913,410.224731 
	C237.028122,410.192871 233.195038,410.339386 229.382843,410.118195 
	C225.662842,409.902374 223.905228,411.599426 223.237793,415.094574 
	C222.835526,417.201202 222.109833,419.262543 221.364929,421.283539 
	C220.135864,424.618225 217.324982,424.594574 214.732925,423.692017 
	C211.882950,422.699677 213.358475,420.357666 213.945923,418.607025 
	C219.281998,402.704865 224.679901,386.823456 230.081070,370.943207 
	C230.886536,368.575073 231.572845,366.029968 234.904297,366.148834 
	C238.110611,366.263245 238.771484,368.627106 239.602051,371.091888 
	C244.904449,386.826965 250.324799,402.522278 255.620300,418.259644 
	C256.288300,420.244843 258.137665,422.933594 254.451157,423.917633 
	C251.606445,424.676971 249.194504,423.906158 248.258560,420.584412 
	C247.583176,418.187439 246.695923,415.850159 245.787781,413.106995 
M236.346283,402.776398 
	C237.960693,402.631317 239.673721,403.095917 241.641037,401.652832 
	C240.410873,394.433044 237.397659,387.574585 234.861969,380.503265 
	C232.223984,387.765747 229.269516,394.676636 227.718994,402.782959 
	C230.905457,402.782959 233.190567,402.782959 236.346283,402.776398 
z"/>
<path fill="#000000" opacity="1.000000" stroke="none" 
	d="
M189.898880,416.851196 
	C196.448822,416.421112 199.567978,414.040741 200.365463,409.181305 
	C201.013702,405.231262 197.987595,401.091034 192.981216,399.169220 
	C189.257477,397.739746 185.402283,396.605133 181.793884,394.932953 
	C174.716949,391.653442 171.247818,384.954529 172.622910,377.893127 
	C173.867599,371.501343 180.118286,366.526642 187.455002,365.923676 
	C192.578354,365.502594 197.400406,366.548584 201.946762,368.769104 
	C203.676651,369.614044 205.710220,370.794434 204.560974,373.360321 
	C203.455551,375.828369 201.649643,376.823273 198.904877,375.658295 
	C195.208954,374.089661 191.455490,372.848267 187.295609,373.711182 
	C183.755844,374.445404 180.863785,375.914429 180.387817,379.823975 
	C179.909332,383.754120 181.877823,386.660950 185.371948,388.213013 
	C188.702942,389.692596 192.286438,390.592621 195.674484,391.957123 
	C202.359131,394.649292 207.592102,398.739929 208.185715,406.605865 
	C209.001923,417.421509 200.517441,425.319092 188.628693,424.711151 
	C183.947968,424.471741 179.421890,423.294678 175.387589,420.731171 
	C173.597244,419.593506 172.111771,418.324127 173.640808,415.897888 
	C174.980026,413.772827 176.736145,412.673096 179.047348,414.057800 
	C182.292603,416.002136 185.692398,417.049469 189.898880,416.851196 
z"/>
<path fill="#000000" opacity="1.000000" stroke="none" 
	d="
M308.378723,369.818115 
	C312.494141,383.147308 316.483246,396.099731 320.514343,409.188477 
	C322.979126,408.024963 322.766113,406.108032 323.228638,404.634399 
	C326.763062,393.373230 330.209900,382.084503 333.653839,370.795135 
	C334.092529,369.357086 334.308563,367.767639 335.674683,366.912384 
	C337.471985,365.787262 339.569580,365.563049 341.398743,366.561920 
	C343.347015,367.625732 342.416565,369.473785 341.920135,371.024872 
	C336.699493,387.336487 331.437897,403.635040 326.241730,419.954437 
	C325.385529,422.643555 323.974670,424.191345 320.909302,424.151337 
	C317.912811,424.112213 316.986237,422.275879 316.227844,419.890259 
	C311.188843,404.039764 306.084991,388.209900 301.045319,372.359619 
	C300.387787,370.291565 298.501404,367.703217 301.884766,366.445099 
	C304.684845,365.403870 307.166748,366.238922 308.378723,369.818115 
z"/>
<path fill="#000000" opacity="1.000000" stroke="none" 
	d="
M76.570374,373.759155 
	C74.300720,374.482513 72.404015,375.089172 70.524742,375.745697 
	C68.028618,376.617706 66.813652,374.999695 65.726860,373.256073 
	C64.396996,371.122498 65.719543,369.895355 67.365349,368.782227 
	C74.031715,364.273376 85.478104,365.060425 91.156853,370.436951 
	C96.694756,375.680084 97.318336,383.840057 92.533844,391.741730 
	C91.350296,393.696350 91.721565,394.864655 92.923492,396.586792 
	C98.769943,404.963715 98.351524,413.494446 92.000107,419.733795 
	C86.147354,425.483276 73.708023,426.372986 66.852989,421.553375 
	C65.107796,420.326385 63.550621,419.006012 64.988884,416.669373 
	C66.342865,414.469666 68.050789,413.142792 70.737228,414.913788 
	C73.670334,416.847412 77.006119,416.999695 80.367226,416.756073 
	C84.845924,416.431488 88.229965,413.266998 88.709297,408.941711 
	C89.232491,404.220673 87.442429,400.768402 82.816498,399.208527 
	C81.110123,398.633148 79.260071,398.381195 77.454636,398.227600 
	C75.062904,398.024048 73.149170,397.512207 73.198784,394.546295 
	C73.244240,391.828400 74.639694,390.624420 77.289291,390.719177 
	C77.620903,390.731049 77.956360,390.712250 78.286545,390.675903 
	C84.683678,389.971130 88.077202,386.611664 87.743324,381.320160 
	C87.423920,376.257843 83.481148,373.461029 76.570374,373.759155 
z"/>
<path fill="#000000" opacity="1.000000" stroke="none" 
	d="
M263.111389,401.177429 
	C264.304932,390.741943 262.754333,380.749329 263.463806,370.773010 
	C263.649780,368.158020 263.769226,366.132294 267.078064,366.103027 
	C270.514587,366.072662 271.204620,368.112183 271.199493,370.982727 
	C271.175812,384.305298 271.399292,397.632111 271.115143,410.948425 
	C271.014191,415.680786 272.662354,417.126068 277.153534,416.807312 
	C281.460938,416.501617 285.808350,416.762360 290.138153,416.767700 
	C292.329773,416.770416 294.112915,417.213684 294.266479,419.942993 
	C294.421173,422.693024 293.058594,424.047607 290.462921,424.064728 
	C282.638031,424.116272 274.812378,424.076324 266.987152,424.042633 
	C264.400757,424.031525 263.639313,422.463409 263.598511,420.114807 
	C263.491455,413.959778 263.277771,407.806580 263.111389,401.177429 
z"/>
<path fill="#000000" opacity="1.000000" stroke="none" 
	d="
M210.551270,212.662354 
	C202.328812,216.729111 193.901657,217.121796 185.350647,216.706177 
	C182.590332,216.572021 181.278671,215.316574 183.498489,213.046005 
	C188.609985,207.817657 193.566162,202.380295 199.439499,197.978851 
	C203.071030,195.257401 210.814270,197.453766 213.860611,201.759811 
	C216.159546,205.009384 215.073257,208.931427 210.551270,212.662354 
z"/>
</svg>